<?xml version="1.0" standalone="no"?><!DOCTYPE svg PUBLIC "-//W3C//DTD SVG 1.1//EN" "http://www.w3.org/Graphics/SVG/1.1/DTD/svg11.dtd"><svg t="1611141469022" class="icon" viewBox="0 0 1024 1024" version="1.1" xmlns="http://www.w3.org/2000/svg" p-id="13442" xmlns:xlink="http://www.w3.org/1999/xlink" width="32" height="32"><defs><style type="text/css"></style></defs><path d="M160 544c-17.664 0-32 14.304-32 32v320c0 17.696 14.336 32 32 32s32-14.304 32-32V576c0-17.696-14.336-32-32-32zM608 544c-17.696 0-32 14.304-32 32v320c0 17.696 14.304 32 32 32s32-14.304 32-32V576c0-17.696-14.304-32-32-32zM864 544c-17.696 0-32 14.304-32 32v320c0 17.696 14.304 32 32 32s32-14.304 32-32V576c0-17.696-14.304-32-32-32zM288 544c-17.664 0-32 14.304-32 32v224c0 17.696 14.336 32 32 32s32-14.304 32-32V576c0-17.696-14.336-32-32-32zM416 544c-17.664 0-32 14.304-32 32v224c0 17.696 14.336 32 32 32s32-14.304 32-32V576c0-17.696-14.336-32-32-32zM736 544c-17.696 0-32 14.304-32 32v224c0 17.696 14.304 32 32 32s32-14.304 32-32V576c0-17.696-14.304-32-32-32zM160 352c17.664 0 32-14.336 32-32V128c0-17.664-14.336-32-32-32s-32 14.336-32 32v192c0 17.664 14.336 32 32 32zM288 352c17.664 0 32-14.336 32-32V128c0-17.664-14.336-32-32-32s-32 14.336-32 32v192c0 17.664 14.336 32 32 32zM416 352c17.664 0 32-14.336 32-32V128c0-17.664-14.336-32-32-32s-32 14.336-32 32v192c0 17.664 14.336 32 32 32zM608 352c17.696 0 32-14.336 32-32V128c0-17.664-14.304-32-32-32s-32 14.336-32 32v192c0 17.664 14.304 32 32 32zM736 352c17.696 0 32-14.336 32-32V128c0-17.664-14.304-32-32-32s-32 14.336-32 32v192c0 17.664 14.304 32 32 32zM864 352c17.696 0 32-14.336 32-32V128c0-17.664-14.304-32-32-32s-32 14.336-32 32v192c0 17.664 14.304 32 32 32zM928 416H96c-17.664 0-32 14.336-32 32s14.336 32 32 32h832c17.696 0 32-14.336 32-32s-14.304-32-32-32z" p-id="13443"></path></svg>