<?xml version="1.0" standalone="no"?><!DOCTYPE svg PUBLIC "-//W3C//DTD SVG 1.1//EN" "http://www.w3.org/Graphics/SVG/1.1/DTD/svg11.dtd"><svg t="1611320193061" class="icon" viewBox="0 0 1024 1024" version="1.1" xmlns="http://www.w3.org/2000/svg" p-id="3106" xmlns:xlink="http://www.w3.org/1999/xlink" width="128" height="128"><defs><style type="text/css"></style></defs><path d="M800.44 857.651H223.831c-31.713 0-57.518-25.8-57.518-57.513v-576.63c0-31.713 25.805-57.518 57.518-57.518h576.61c31.713 0 57.512 25.805 57.512 57.518v576.635c0.005 31.709-25.794 57.508-57.513 57.508zM223.831 218.235a5.274 5.274 0 0 0-5.268 5.268v576.635a5.274 5.274 0 0 0 5.268 5.264h576.61a5.268 5.268 0 0 0 5.263-5.264v-576.63a5.274 5.274 0 0 0-5.264-5.268H223.831z" p-id="3107"></path><path d="M198.682 354.222H831.83v52.25H198.68z" p-id="3108"></path><path d="M390.871 361.467h52.25v452.188h-52.25z" p-id="3109"></path></svg>