<?xml version="1.0" standalone="no"?><!DOCTYPE svg PUBLIC "-//W3C//DTD SVG 1.1//EN" "http://www.w3.org/Graphics/SVG/1.1/DTD/svg11.dtd"><svg t="1611144741662" class="icon" viewBox="0 0 1024 1024" version="1.1" xmlns="http://www.w3.org/2000/svg" p-id="9210" xmlns:xlink="http://www.w3.org/1999/xlink" width="32" height="32"><defs><style type="text/css"></style></defs><path d="M512 896a384 384 0 1 0 0-768 384 384 0 0 0 0 768z m0 85.333333C252.8 981.333333 42.666667 771.2 42.666667 512S252.8 42.666667 512 42.666667s469.333333 210.133333 469.333333 469.333333-210.133333 469.333333-469.333333 469.333333zM389.973333 370.261333l-21.418666 1.92-6.357334-77.269333 19.2-3.370667c3.84-0.64 26.709333-4.778667 33.109334-5.845333 29.866667-4.992 56.192-6.997333 101.973333-6.997333 91.690667 0 141.994667 38.016 141.994667 113.92 0 42.88-17.834667 68.565333-61.44 106.666666-4.48 3.968-4.48 3.968-8.96 7.808-40.106667 34.986667-54.442667 55.722667-55.637334 90.965334l-0.725333 20.608h-85.205333l-0.341334-20.992c-0.853333-54.912 20.181333-90.752 64.810667-131.925334 1.493333-1.408 20.906667-18.901333 25.898667-23.68 17.664-16.938667 24.832-28.458667 25.173333-41.130666 0.810667-26.496-12.458667-36.565333-56.32-36.565334-34.816 0-56.064 0.768-79.573333 2.645334-7.850667 0.64-46.336 4.138667-36.181334 3.242666zM448 682.666667c0-23.253333 20.48-32.085333 43.434667-32.085334s43.392 8.832 43.392 32.085334v42.666666c0 23.253333-20.48 32.085333-43.434667 32.085334S448 748.586667 448 725.333333v-42.666666z" p-id="9211"></path></svg>