<?xml version="1.0" standalone="no"?><!DOCTYPE svg PUBLIC "-//W3C//DTD SVG 1.1//EN" "http://www.w3.org/Graphics/SVG/1.1/DTD/svg11.dtd"><svg t="1611144685246" class="icon" viewBox="0 0 1024 1024" version="1.1" xmlns="http://www.w3.org/2000/svg" p-id="7644" xmlns:xlink="http://www.w3.org/1999/xlink" width="32" height="32"><defs><style type="text/css"></style></defs><path d="M821.106 93.209h-618.214c-60.479 0-109.684 49.204-109.684 109.684v618.214c0 60.479 49.204 109.684 109.684 109.684h618.214c60.479 0 109.684-49.204 109.684-109.684v-618.214c0-60.479-49.203-109.684-109.684-109.684zM202.893 133.094h618.214c38.486 0 69.799 31.312 69.799 69.799v128.022c-140.713 4.933-272.222 61.954-372.167 161.899-46.838 46.839-84.226 100.624-111.276 159.023-78.278-66.408-191.6-70.666-274.367-12.766v-436.178c0-38.487 31.312-69.799 69.799-69.799zM133.094 821.106v-130.393c71.758-69.667 186.407-69.595 258.067 0.23-22.785 61.217-34.712 126.667-34.712 193.979 0 2.085 0.322 4.093 0.916 5.982h-154.474c-38.487 0-69.799-31.312-69.799-69.799zM821.106 890.905h-425.688c0.593-1.889 0.916-3.898 0.916-5.982 0-137.548 53.487-266.786 150.608-363.907 92.41-92.41 213.907-145.278 343.963-150.192v450.282c-0.001 38.487-31.313 69.799-69.8 69.799zM324.873 419.618c57.036 0 103.437-46.401 103.437-103.437s-46.401-103.437-103.437-103.437-103.437 46.401-103.437 103.437 46.401 103.437 103.437 103.437zM324.873 252.629c35.042 0 63.552 28.509 63.552 63.552s-28.509 63.552-63.552 63.552-63.552-28.509-63.552-63.552 28.509-63.552 63.552-63.552z" p-id="7645"></path></svg>