<?xml version="1.0" standalone="no"?><!DOCTYPE svg PUBLIC "-//W3C//DTD SVG 1.1//EN" "http://www.w3.org/Graphics/SVG/1.1/DTD/svg11.dtd"><svg t="1611144519258" class="icon" viewBox="0 0 1024 1024" version="1.1" xmlns="http://www.w3.org/2000/svg" p-id="7360" xmlns:xlink="http://www.w3.org/1999/xlink" width="32" height="32"><defs><style type="text/css"></style></defs><path d="M233.078 933.236v-793.073h281.659c86.333 0 152.917 16.369 199.696 49.167s70.196 78.177 70.196 136.198c0 42.992-14.563 80.74-43.574 113.13s-65.536 54.759-109.575 67.051v2.038c55.283 6.815 99.964 27.322 133.926 61.458 34.020 34.137 50.973 76.954 50.973 128.509 0 72.002-25.573 129.325-76.78 171.734-51.205 42.526-121.227 63.789-209.949 63.789h-296.572zM402.075 266.109v196.083h80.39c38.623 0 68.973-9.204 91.168-27.67s33.263-44.215 33.263-77.302c0-60.759-44.389-91.109-133.169-91.109h-71.652zM402.075 589.711v217.58h100.372c42.642 0 76.021-9.903 100.14-29.71 24-19.807 36.060-47.302 36.060-82.43 0-33.438-11.942-59.42-35.826-77.827s-57.846-27.67-101.887-27.67h-98.857z" p-id="7361"></path></svg>