<?xml version="1.0" standalone="no"?><!DOCTYPE svg PUBLIC "-//W3C//DTD SVG 1.1//EN" "http://www.w3.org/Graphics/SVG/1.1/DTD/svg11.dtd"><svg t="1611142077068" class="icon" viewBox="0 0 1024 1024" version="1.1" xmlns="http://www.w3.org/2000/svg" p-id="15389" xmlns:xlink="http://www.w3.org/1999/xlink" width="32" height="32"><defs><style type="text/css"></style></defs><path d="M649.723232 1024c-2.654807 0-5.289193-0.408432-7.841893-1.184452a22.0349 22.0349 0 0 1-12.94729-10.169954 17.133718 17.133718 0 0 1-0.735178-15.050715l131.658018-310.7554c3.267455-7.760206 11.946633-12.926869 21.503939-12.926869 2.654807 0 5.309615 0.408432 7.841892 1.184452 11.844525 3.675887 17.971003 14.948607 13.682468 25.138983l-131.637596 310.816664c-3.287877 7.698941-11.946633 12.947291-21.52436 12.947291zM870.419401 969.106755c-6.003949 0-11.926211-2.450591-16.214746-6.739126a22.770078 22.770078 0 0 1 0.081686-32.266119l82.503241-82.421555-82.584927-82.50324a22.872186 22.872186 0 0 1 0-32.368227c4.288535-4.288535 10.006581-6.65744 16.133059-6.65744 6.106057 0 11.844525 2.368905 16.13306 6.65744l98.738408 98.6363c4.288535 4.288535 6.739126 10.027003 6.739126 16.133059 0 6.126478-2.368905 11.844525-6.739126 16.13306l-98.6363 98.738408a22.66797 22.66797 0 0 1-16.13306 6.65744zM560.685081 975.131125c-6.126478 0-11.844525-2.368905-16.235168-6.739126l-98.6363-98.554614c-4.288535-4.288535-6.739126-10.027003-6.739126-16.133059 0-6.126478 2.368905-11.844525 6.739126-16.13306l98.738408-98.656722c4.288535-4.288535 10.006581-6.65744 16.13306-6.657439a22.872186 22.872186 0 0 1 16.133059 39.005245l-82.503241 82.523662 82.503241 82.503241c4.288535 4.288535 6.739126 10.027003 6.739126 16.133059 0 6.126478-2.368905 11.844525-6.739126 16.13306-4.186427 4.10474-10.108689 6.575753-16.133059 6.575753z" p-id="15390"></path><path d="M512 603.151786c-223.759408 0-405.777078 178.729793-405.777078 398.425304 0 11.78326-9.761522 21.340566-21.748997 21.340566A21.544782 21.544782 0 0 1 62.724927 1001.556668c0-201.356919 138.254193-371.244162 326.337076-423.911453-107.764753-46.602078-183.263387-152.324671-183.263387-275.160561C205.798616 136.68173 343.154259 1.837943 512 1.837943s306.221806 134.843787 306.221806 300.646711c0 122.856311-75.519056 228.558483-183.283809 275.160561 37.351096 10.476278 72.741719 25.547414 105.477535 44.58034 11.088926 7.229244 4.635702 22.851764-3.777995 31.265461-5.615938 5.615938-14.764813 5.595517-27.446623-0.061265-83.76938-33.532258-149.506491-50.277965-197.190914-50.277965zM249.27619 302.484654c0 142.256825 117.832599 257.965578 262.72381 257.965578 144.87079 0 262.744231-115.708753 262.744231-257.965578C774.744231 160.24825 656.87079 44.519075 512 44.519075c-144.87079 0-262.72381 115.729175-262.72381 257.965579z" p-id="15391"></path></svg>