<?xml version="1.0" standalone="no"?><!DOCTYPE svg PUBLIC "-//W3C//DTD SVG 1.1//EN" "http://www.w3.org/Graphics/SVG/1.1/DTD/svg11.dtd"><svg t="1611144498198" class="icon" viewBox="0 0 1024 1024" version="1.1" xmlns="http://www.w3.org/2000/svg" p-id="7217" xmlns:xlink="http://www.w3.org/1999/xlink" width="32" height="32"><defs><style type="text/css"></style></defs><path d="M913.41042725 462.28973037c-88.85710697-126.13980918-235.50240237-208.78313245-401.41042725-208.78313245S199.4466797 336.14992118 110.58957275 462.28973037c-11.18481067 16.15583763-21.74824297 32.31167525-31.06891853 49.71026963 9.32067555 17.39859437 19.88410785 33.554432 31.06891853 49.71026963 88.85710697 126.13980918 235.50240237 208.78313245 401.41042725 208.78313245s312.5533203-82.64332325 401.41042725-208.78313245c11.18481067-16.15583763 21.74824297-32.31167525 31.06891853-49.71026963-9.32067555-17.39859437-19.88410785-33.554432-31.06891853-49.71026963zM512 720.78313245c-157.83010608 0-297.01886103-83.26470163-374.69115733-208.78313245C214.98113897 387.10294755 354.16989392 303.21686755 512 303.21686755s297.01886103 83.26470163 374.69115733 208.78313245c-77.6722963 124.89705245-216.86105125 208.78313245-374.69115733 208.78313245z" p-id="7218"></path><path d="M512 512m-93.20675555 0a93.20675555 93.20675555 0 1 0 186.4135111 0 93.20675555 93.20675555 0 1 0-186.4135111 0Z" p-id="7219"></path></svg>