<?xml version="1.0" standalone="no"?><!DOCTYPE svg PUBLIC "-//W3C//DTD SVG 1.1//EN" "http://www.w3.org/Graphics/SVG/1.1/DTD/svg11.dtd"><svg t="1611141474317" class="icon" viewBox="0 0 1024 1024" version="1.1" xmlns="http://www.w3.org/2000/svg" p-id="13580" xmlns:xlink="http://www.w3.org/1999/xlink" width="32" height="32"><defs><style type="text/css"></style></defs><path d="M898.304 188.842667L538.453333 74.496l-359.850666 114.346667a32.256 32.256 0 0 0-22.613334 31.061333v454.912c0.768 3.157333 17.749333 77.994667 91.306667 150.528 56.576 55.808 192.426667 127.488 251.648 158.549333 9.216 4.864 13.653333 6.656 17.493333 8.789334l17.578667 8.789333c4.693333 2.56 12.970667 2.389333 17.578667 0l17.578666-8.789333c34.645333-16.981333 194.986667-102.912 260.437334-167.253334 73.642667-72.533333 90.624-147.456 91.306666-150.613333v-454.826667a32.170667 32.170667 0 0 0-22.528-31.146666z m-352.085333 746.325333l-2.048-1.024h5.034666c-1.962667 1.024-2.986667 1.024-2.986666 1.024z m82.432-268.544h-58.112v81.92a34.474667 34.474667 0 0 1-68.864 0V537.258667l0.085333-1.877334a153.344 153.344 0 0 1-18.773333-6.997333 121.685333 121.685333 0 0 1-51.541334-46.933333 120.32 120.32 0 0 1-17.237333-70.826667c2.389333-27.648 12.373333-51.712 30.037333-73.216a122.538667 122.538667 0 0 1 131.925334-35.754667c25.6 9.386667 46.336 25.088 62.037333 47.189334 13.653333 19.285333 20.736 43.434667 21.333333 66.986666v2.048l-0.085333 2.56c-1.706667 52.394667-37.802667 101.888-89.088 115.541334v60.416h58.197333c18.944 0 34.389333 15.36 34.389334 34.389333v1.450667h0.170666c0 19.029333-15.445333 34.389333-34.474666 34.389333z m-50.688-217.6a97.365333 97.365333 0 0 0 6.4-10.922667c1.536-4.266667 2.730667-8.704 3.754666-13.312l0.341334-6.912a65.877333 65.877333 0 0 0-0.341334-6.826666 90.112 90.112 0 0 0-3.754666-13.482667 108.714667 108.714667 0 0 0-7.082667-11.946667c-1.28-1.450667-2.56-2.986667-4.010667-4.266666a71.68 71.68 0 0 0-6.570666-5.717334 97.28 97.28 0 0 0-9.728-5.632 105.642667 105.642667 0 0 0-13.312-3.669333 91.989333 91.989333 0 0 0-13.824 0 84.821333 84.821333 0 0 0-13.312 3.669333 108.714667 108.714667 0 0 0-11.946667 7.168c-1.450667 1.28-2.986667 2.56-4.266667 4.010667a71.68 71.68 0 0 0-5.717333 6.570667 97.28 97.28 0 0 0-5.632 9.728 105.642667 105.642667 0 0 0-3.669333 13.226666 91.989333 91.989333 0 0 0 0 13.909334c0.853333 4.522667 2.133333 9.045333 3.669333 13.312a108.714667 108.714667 0 0 0 7.168 11.946666c1.28 1.450667 2.56 2.986667 4.010667 4.266667a71.68 71.68 0 0 0 6.485333 5.717333c3.157333 2.048 6.485333 3.925333 9.728 5.632 4.437333 1.536 8.789333 2.730667 13.312 3.669334 4.608 0.341333 9.301333 0.341333 13.909333 0a84.821333 84.821333 0 0 0 13.312-3.669334 108.714667 108.714667 0 0 0 11.946667-7.168 64 64 0 0 0 9.130667-9.216z" p-id="13581"></path></svg>