<?xml version="1.0" standalone="no"?><!DOCTYPE svg PUBLIC "-//W3C//DTD SVG 1.1//EN" "http://www.w3.org/Graphics/SVG/1.1/DTD/svg11.dtd"><svg t="1611140676877" class="icon" viewBox="0 0 1024 1024" version="1.1" xmlns="http://www.w3.org/2000/svg" p-id="12178" xmlns:xlink="http://www.w3.org/1999/xlink" width="32" height="32"><defs><style type="text/css"></style></defs><path d="M124.489143 603.428571v158.902858c0 9.325714 3.291429 17.444571 12.178286 20.260571l466.578285 147.456a17.334857 17.334857 0 0 0 5.595429 0.950857 20.516571 20.516571 0 0 0 13.970286-5.485714l259.803428-235.922286a20.809143 20.809143 0 0 0 6.436572-15.725714v-174.518857l64.950857 22.345143a22.381714 22.381714 0 0 0 23.771428-5.632c6.107429-6.363429 6.912-15.469714 3.364572-24.466286L889.051429 295.131429v-0.365715a14.262857 14.262857 0 0 0-2.194286-7.972571 20.114286 20.114286 0 0 0-8.484572-10.24c-0.658286-0.365714-1.097143-0.548571-1.718857-0.804572a78.884571 78.884571 0 0 0-17.846857-9.691428L478.976 147.675429a23.076571 23.076571 0 0 0-17.554286 1.682285L161.353143 306.468571c-23.405714 12.288-33.060571 21.138286-36.937143 27.355429a20.699429 20.699429 0 0 0-4.278857 7.753143 36.242286 36.242286 0 0 0-4.022857 7.204571l-75.995429 187.538286c-3.876571 9.581714-3.547429 20.48 0.841143 29.842286 4.388571 9.362286 15.286857 16.530286 25.161143 19.675428l58.331428 17.554286z m26.843428 8.411429l351.085715 111.616c3.657143 1.097143 6.070857 1.718857 9.874285 1.718857 16.530286 0 30.573714-11.117714 35.145143-26.989714l36.717715-129.097143 10.678857 329.691429-443.501715-140.580572v-146.322286z m710.912 59.501714l-243.894857 221.366857-10.788571-426.861714 254.683428-160.658286v366.153143z m26.806858-200.411428V355.84l63.597714 137.142857-63.597714-22.052571zM472.612571 173.750857L839.68 288.182857l-247.771429 156.16c-16.310857-3.913143-72.484571-18.505143-144.310857-37.376L173.458286 330.459429l0.402285-0.219429 298.788572-156.489143zM65.097143 546.413714l75.958857-190.610285c0.365714-0.914286 0.877714 7.862857 1.462857-5.558858h8.850286v4.754286c134.144 38.217143 238.884571 64.109714 305.517714 81.627429l117.906286 33.28c2.706286 0.731429 4.278857 2.523429 5.632 4.937143a10.313143 10.313143 0 0 1 0.621714 8.009142l-59.830857 207.908572a10.605714 10.605714 0 0 1-13.275429 7.094857L71.606857 560.274286a10.422857 10.422857 0 0 1-6.582857-13.897143z" p-id="12179"></path></svg>