<?xml version="1.0" standalone="no"?><!DOCTYPE svg PUBLIC "-//W3C//DTD SVG 1.1//EN" "http://www.w3.org/Graphics/SVG/1.1/DTD/svg11.dtd"><svg t="1611142895214" class="icon" viewBox="0 0 1418 1024" version="1.1" xmlns="http://www.w3.org/2000/svg" p-id="6649" xmlns:xlink="http://www.w3.org/1999/xlink" width="44.3125" height="32"><defs><style type="text/css"></style></defs><path d="M332.8 312.32c20.48-20.48 48.64-33.28 87.04-33.28V209.92c-53.76 0-102.4 20.48-135.68 53.76-40.96 33.28-61.44 81.92-61.44 135.68 0 53.76 20.48 102.4 61.44 135.68 0 0 0 7.68 7.68 7.68-20.48 7.68-33.28 12.8-53.76 28.16h7.68c-33.28 20.48-48.64 53.76-48.64 87.04V757.76H419.84V691.2H256v-33.28c0-12.8 12.8-28.16 20.48-33.28 20.48-12.8 40.96-20.48 61.44-20.48h81.92v-74.24c-40.96 0-66.56-12.8-87.04-40.96-28.16-20.48-40.96-53.76-40.96-87.04 0-35.84 12.8-69.12 40.96-89.6zM419.84 209.92z" p-id="6650"></path><path d="M1377.28 0H40.96C20.48 0 0 12.8 0 40.96v942.08c0 20.48 20.48 40.96 40.96 40.96h378.88v-81.92H81.92V81.92H1333.76v860.16H422.4V1024h954.88c20.48 0 40.96-20.48 40.96-40.96V40.96C1415.68 12.8 1395.2 0 1377.28 0z" p-id="6651"></path><path d="M419.84 691.2v66.56H642.56V657.92c-7.68-33.28-20.48-66.56-48.64-87.04-12.8-12.8-33.28-20.48-53.76-28.16 7.68 0 7.68 0 12.8-7.68 33.28-33.28 53.76-81.92 53.76-135.68 0-53.76-20.48-102.4-53.76-135.68C512 230.4 465.92 209.92 417.28 209.92v66.56c33.28 0 61.44 12.8 87.04 33.28 20.48 20.48 33.28 53.76 33.28 87.04 0 33.28-12.8 66.56-33.28 87.04-28.16 28.16-53.76 40.96-87.04 40.96v74.24h74.24c20.48 0 40.96 7.68 61.44 20.48 12.8 7.68 20.48 20.48 20.48 33.28V691.2h-153.6zM778.24 752.64h460.8c20.48 0 33.28-12.8 33.28-28.16 0-20.48-12.8-33.28-33.28-33.28h-460.8c-12.8 0-28.16 12.8-28.16 33.28 2.56 15.36 15.36 28.16 28.16 28.16zM778.24 284.16c-12.8 0-28.16 12.8-28.16 33.28s12.8 33.28 28.16 33.28h460.8c20.48 0 33.28-12.8 33.28-33.28s-12.8-33.28-33.28-33.28h-460.8zM778.24 555.52h460.8c20.48 0 33.28-12.8 33.28-33.28s-12.8-33.28-33.28-33.28h-460.8c-12.8 0-28.16 12.8-28.16 33.28s15.36 33.28 28.16 33.28z" p-id="6652"></path></svg>