<?xml version="1.0" standalone="no"?><!DOCTYPE svg PUBLIC "-//W3C//DTD SVG 1.1//EN" "http://www.w3.org/Graphics/SVG/1.1/DTD/svg11.dtd"><svg t="1611140646688" class="icon" viewBox="0 0 1024 1024" version="1.1" xmlns="http://www.w3.org/2000/svg" p-id="11208" xmlns:xlink="http://www.w3.org/1999/xlink" width="32" height="32"><defs><style type="text/css"></style></defs><path d="M0 255.04v512c0 168.128 257.536 256 512 256s512-87.872 512-256v-512c0-336.256-1024-336.256-1024 0z m896 256c0 45.12-145.792 128-384 128s-384-82.88-384-128V428.16a834.56 834.56 0 0 0 384 82.88 834.56 834.56 0 0 0 384-82.88z m-384-384c238.208 0 384 82.88 384 128s-145.792 128-384 128-384-82.88-384-128 145.792-128 384-128z m0 768c-238.208 0-384-82.88-384-128V684.16a834.56 834.56 0 0 0 384 82.88 834.56 834.56 0 0 0 384-82.88v82.88c0 45.12-145.792 128-384 128z" p-id="11209"></path></svg>