<?xml version="1.0" standalone="no"?><!DOCTYPE svg PUBLIC "-//W3C//DTD SVG 1.1//EN" "http://www.w3.org/Graphics/SVG/1.1/DTD/svg11.dtd"><svg t="1611144803748" class="icon" viewBox="0 0 1024 1024" version="1.1" xmlns="http://www.w3.org/2000/svg" p-id="10055" xmlns:xlink="http://www.w3.org/1999/xlink" width="32" height="32"><defs><style type="text/css"></style></defs><path d="M750.8 552.8c-15.1 15.5-41.3 4.8-41.3-16.8v-96.9c0-65.5-286.7 20.3-340.5 229.9-1.6 6.4-4.3 12.5-8 18-7.4 11.1-21.1 24.6-43.4 21.1-7.3-1.1-16.2-5.4-21.5-16.2-4.2-8.8-4.2-18.8-1.7-28.2 16.7-63.2 121.9-413.4 407.1-419.8 4.4-0.1 8-3.7 8-8.1v-90.9c0-19.5 16.3-35.3 35.8-34.1 18.7 1.1 36.3 11.3 77.9 54.7 0.2 0.2 0.3 0.4 0.5 0.5l126.9 130.5c13.8 14.2 13.8 36.7 0 50.8L750.8 552.8z" p-id="10056"></path><path d="M178.1 439.1c-21.3 0.3-38-2.9-38 28.9v322.7c0 21.6 17 39.1 38 39.1h645.3c30 0 38-13 38-39.1v-39.1c0-21.6 17-39.1 38-39.1s38 17.5 38 39.1v78.1c-0.1 43.2-34 78.1-76 78.1H140.1c-41.9 0-75.9-34.9-75.9-78.1V439.1c0-43.2 34-78.1 75.9-78.1h38c21 0 38 17.5 38 39.1 0.3 21.2-16.7 38.7-38 39z" p-id="10057"></path></svg>