<?xml version="1.0" standalone="no"?><!DOCTYPE svg PUBLIC "-//W3C//DTD SVG 1.1//EN" "http://www.w3.org/Graphics/SVG/1.1/DTD/svg11.dtd"><svg t="1611140513450" class="icon" viewBox="0 0 1024 1024" version="1.1" xmlns="http://www.w3.org/2000/svg" p-id="8094" xmlns:xlink="http://www.w3.org/1999/xlink" width="32" height="32"><defs><style type="text/css"></style></defs><path d="M401.248 960.288c-226.592 0-336.704-53.056-336.704-162.24 0-76.8 114.4-127.072 230.048-144.64l0-6.496c-86.336-66.112-97.856-184.032-97.856-281.024 0-132.192 77.792-211.104 208.128-211.104l6.816 0c130.336 0 208.16 78.912 208.16 211.104 0 96.992-11.52 214.912-97.888 281.024l0 6.496c115.616 17.568 230.016 67.808 230.016 144.64C752 872.064 691.168 960.288 401.248 960.288zM404.864 218.784c-95.648 0-144.128 49.472-144.128 147.104 0 91.264 9.856 190.848 83.04 237.408 9.216 5.888 14.816 16.064 14.816 27.008l0 51.264c0 16.384-12.352 30.08-28.64 31.808-121.088 12.768-201.408 59.424-201.408 84.672 0 65.184 91.744 98.24 272.704 98.24 182.208 0 286.752-35.808 286.752-98.24 0-25.248-80.32-71.904-201.376-84.672-16.288-1.728-28.64-15.424-28.64-31.808l0-51.264c0-10.944 5.6-21.12 14.816-27.008 73.184-46.592 83.072-146.144 83.072-237.408 0-97.6-48.512-147.104-144.16-147.104L404.864 218.784zM899.232 763.84c-17.696 0-32-14.304-32-32 0-24.48-91.2-83.904-196.96-95.104-16.32-1.728-28.672-15.424-28.672-31.808l0-66.56c0-10.944 5.6-21.12 14.816-27.008 82.784-52.672 91.712-169.792 91.712-217.696C748.128 183.2 673.44 160 610.784 160c-17.696 0-32-14.336-32-32s14.304-32 32-32c124.192 0 201.344 75.744 201.344 197.696 0 55.712-10.752 188.672-106.528 261.376l0 22.208c102.24 18.656 225.632 79.968 225.632 154.56C931.232 749.536 916.896 763.84 899.232 763.84z" p-id="8095"></path></svg>