<?xml version="1.0" standalone="no"?><!DOCTYPE svg PUBLIC "-//W3C//DTD SVG 1.1//EN" "http://www.w3.org/Graphics/SVG/1.1/DTD/svg11.dtd"><svg t="1611142054875" class="icon" viewBox="0 0 1024 1024" version="1.1" xmlns="http://www.w3.org/2000/svg" p-id="15251" xmlns:xlink="http://www.w3.org/1999/xlink" width="32" height="32"><defs><style type="text/css"></style></defs><path d="M1021.952 86.016v84.992H340.992V86.016h680.96zM128 256C198.656 256 256 198.656 256 128 254.976 58.368 197.632 0 128 0 57.344 0 0 58.368 0 128 0 198.656 57.344 256 128 256z m169.984 212.992H0v84.992h297.984v-84.992z m425.984 84.992h297.984v-84.992H723.968v84.992zM638.976 512c0-70.656-57.344-128-128-128S382.976 441.344 382.976 512 440.32 640 510.976 640c70.656-1.024 128-58.368 128-128zM0 937.984h681.984v-84.992H0v84.992z m893.952-171.008c-70.656 0-128 57.344-128 128s57.344 128 128 128 128-57.344 128-128-57.344-128-128-128z m0 0" p-id="15252"></path></svg>