<?xml version="1.0" standalone="no"?><!DOCTYPE svg PUBLIC "-//W3C//DTD SVG 1.1//EN" "http://www.w3.org/Graphics/SVG/1.1/DTD/svg11.dtd"><svg t="1611142416295" class="icon" viewBox="0 0 1024 1024" version="1.1" xmlns="http://www.w3.org/2000/svg" p-id="18067" xmlns:xlink="http://www.w3.org/1999/xlink" width="32" height="32"><defs><style type="text/css"></style></defs><path d="M852.3 652h-24.8v-86c0-56.3-45.7-102-102-102h-193v-96h24c56.3 0 102-45.7 102-102V166c0-56.3-45.7-102-102-102h-100c-56.3 0-102 45.7-102 102v100c0 56.3 45.7 102 102 102h24v96h-193c-56.3 0-102 45.7-102 102v86h-24.8c-56.3 0-102 45.7-102 102v100c0 56.3 45.7 102 102 102h100c56.3 0 102-45.7 102-102V754c0-56.3-45.7-102-102-102h-23.2v-86c0-27.6 22.4-50 50-50h438c27.6 0 50 22.4 50 50v86h-23.2c-56.3 0-102 45.7-102 102v100c0 56.3 45.7 102 102 102h100c56.3 0 102-45.7 102-102V754c0-56.3-45.7-102-102-102zM456.6 316c-27.6 0-50-22.4-50-50V166c0-27.6 22.4-50 50-50h100c27.6 0 50 22.4 50 50v100c0 27.6-22.4 50-50 50h-100zM310.8 754v100c0 27.6-22.4 50-50 50h-100c-27.6 0-50-22.4-50-50V754c0-27.6 22.4-50 50-50h100c27.6 0 50 22.4 50 50z m591.5 100c0 27.6-22.4 50-50 50h-100c-27.6 0-50-22.4-50-50V754c0-27.6 22.4-50 50-50h100c27.6 0 50 22.4 50 50v100z" p-id="18068"></path></svg>