<?xml version="1.0" standalone="no"?><!DOCTYPE svg PUBLIC "-//W3C//DTD SVG 1.1//EN" "http://www.w3.org/Graphics/SVG/1.1/DTD/svg11.dtd"><svg t="1611144745274" class="icon" viewBox="0 0 1051 1024" version="1.1" xmlns="http://www.w3.org/2000/svg" p-id="9352" xmlns:xlink="http://www.w3.org/1999/xlink" width="32.84375" height="32"><defs><style type="text/css"></style></defs><path d="M55.359 553.403v110.924a83.027 83.027 0 0 0 166.054 0V553.403a83.027 83.027 0 0 0-166.054 0z m763.102 211.553a137.853 137.853 0 0 1-43.534-100.63V553.404a138.378 138.378 0 0 1 137.41-138.268C898.138 214.071 730.507 55.351 525.846 55.351c-204.69 0-372.293 158.72-386.491 359.784a138.461 138.461 0 0 1 137.41 138.268v110.924a138.378 138.378 0 0 1-276.757 0V553.403a138.378 138.378 0 0 1 83.304-126.865C91.892 189.523 286.728 0 525.846 0S959.8 189.523 968.38 426.538a138.461 138.461 0 0 1 83.304 126.865v110.924a138.378 138.378 0 0 1-184.79 130.27 470.763 470.763 0 0 1-188.86 121.219 96.81 96.81 0 0 1-97.114 94.346h-82.528c-53.691 0-97.114-43.174-97.114-96.865 0-53.607 43.284-96.865 97.141-96.865h82.474c34.954 0 65.536 18.266 82.64 45.804a415.274 415.274 0 0 0 154.9-97.28z m11.817-211.553v110.924a83.027 83.027 0 0 0 166.054 0V553.403a83.027 83.027 0 0 0-166.054 0zM498.448 954.81h82.473c23.303 0 41.79-18.488 41.79-41.514 0-23.054-18.57-41.513-41.79-41.513h-82.473c-23.303 0-41.79 18.487-41.79 41.513 0 23.054 18.57 41.514 41.79 41.514z" p-id="9353"></path></svg>