<?xml version="1.0" standalone="no"?><!DOCTYPE svg PUBLIC "-//W3C//DTD SVG 1.1//EN" "http://www.w3.org/Graphics/SVG/1.1/DTD/svg11.dtd"><svg t="1611140624712" class="icon" viewBox="0 0 1024 1024" version="1.1" xmlns="http://www.w3.org/2000/svg" p-id="10653" xmlns:xlink="http://www.w3.org/1999/xlink" width="32" height="32"><defs><style type="text/css"></style></defs><path d="M950.912 0H73.184C29.312 0 0.032 29.248 0.032 73.152v146.272c0 43.872 29.248 73.152 73.152 73.152h877.728c43.872 0 73.152-29.248 73.152-73.152V73.152C1024.064 29.28 994.816 0 950.912 0z m-36.576 219.424H109.76c-21.952 0-36.576-14.624-36.576-36.576V109.696c0-21.952 14.624-36.576 36.576-36.576h804.576c21.952 0 36.576 14.624 36.576 36.576v73.152c0 21.952-14.624 36.576-36.576 36.576z m36.576 146.304H73.184c-43.872 0-73.152 29.248-73.152 73.152v146.272c0 43.872 29.248 73.152 73.152 73.152h877.728c43.872 0 73.152-29.248 73.152-73.152v-146.272c0-43.872-29.248-73.152-73.152-73.152z m-36.576 219.424H109.76c-21.952 0-36.576-14.624-36.576-36.576v-73.152c0-21.952 14.624-36.576 36.576-36.576h804.576c21.952 0 36.576 14.624 36.576 36.576v73.152c0 21.952-14.624 36.576-36.576 36.576z m36.576 146.272H73.184c-43.872 0-73.152 29.248-73.152 73.152v146.272C0.032 994.72 29.28 1024 73.184 1024h877.728C994.784 1024 1024.064 994.752 1024.064 950.848v-146.272c0-43.872-29.248-73.152-73.152-73.152z m-36.576 219.424H109.76c-21.952 0-36.576-14.624-36.576-36.576v-73.152c0-21.952 14.624-36.576 36.576-36.576h804.576c21.952 0 36.576 14.624 36.576 36.576v73.152c0 21.952-14.624 36.576-36.576 36.576z" p-id="10654"></path></svg>