<?xml version="1.0" standalone="no"?><!DOCTYPE svg PUBLIC "-//W3C//DTD SVG 1.1//EN" "http://www.w3.org/Graphics/SVG/1.1/DTD/svg11.dtd"><svg t="1611140509174" class="icon" viewBox="0 0 1024 1024" version="1.1" xmlns="http://www.w3.org/2000/svg" p-id="7950" xmlns:xlink="http://www.w3.org/1999/xlink" width="32" height="32"><defs><style type="text/css"></style></defs><path d="M491.749517 885.901241c-8.474483 0-16.93131-2.966069-23.552-8.986483-10.098759-9.163034-247.808-226.427586-300.332138-420.369655C138.946207 349.766621 163.239724 231.688828 232.871724 140.676414c65.977379-86.227862 162.674759-135.68 265.321931-135.68 104.907034 0 201.816276 46.238897 265.851586 126.870069 65.942069 83.067586 89.582345 191.752828 64.829793 298.231172-49.964138 214.863448-233.683862 382.42869-310.360276 444.504276l-3.336828 2.718897C508.468966 883.023448 500.100414 885.901241 491.749517 885.901241zM498.21131 75.617103c-80.472276 0-156.742621 39.353379-209.249103 107.961379-56.35531 73.657379-76.146759 168.801103-52.930207 254.49931 38.382345 141.718069 198.302897 307.712 257.483034 365.462069 78.706759-67.054345 225.262345-211.862069 266.557793-389.455448 19.862069-85.362759 1.129931-172.226207-51.341241-238.309517C658.184828 112.128 581.455448 75.617103 498.21131 75.617103z" p-id="7951"></path><path d="M497.152 576.865103c-116.753655 0-211.756138-94.984828-211.756138-211.756138s94.984828-211.756138 211.756138-211.756138 211.738483 94.984828 211.738483 211.756138S613.905655 576.865103 497.152 576.865103zM497.152 223.991172c-77.824 0-141.135448 63.311448-141.135448 141.135448s63.311448 141.135448 141.135448 141.135448c77.806345 0 141.117793-63.311448 141.117793-141.135448S574.958345 223.991172 497.152 223.991172z" p-id="7952"></path><path d="M493.426759 996.422621c-4.043034 0-8.103724-0.600276-12.040828-1.836138l-231.088552-71.732966L53.76 990.031448c-21.239172 7.256276-44.314483-4.043034-51.570759-25.299862-7.238621-21.221517 4.078345-44.314483 25.317517-51.570759l209.072552-71.450483c8.139034-2.754207 16.948966-2.913103 25.176276-0.353103l231.883034 71.962483 240.269241-72.068414c7.485793-2.277517 15.448276-2.295172 22.934069-0.141241l218.535724 63.028966c21.556966 6.232276 33.986207 28.742621 27.771586 50.264276-6.232276 21.574621-28.70731 34.056828-50.299586 27.789241l-207.059862-59.709793-240.692966 72.209655C501.318621 995.87531 497.381517 996.422621 493.426759 996.422621" p-id="7953"></path></svg>