<?xml version="1.0" standalone="no"?><!DOCTYPE svg PUBLIC "-//W3C//DTD SVG 1.1//EN" "http://www.w3.org/Graphics/SVG/1.1/DTD/svg11.dtd"><svg t="1611141498564" class="icon" viewBox="0 0 1024 1024" version="1.1" xmlns="http://www.w3.org/2000/svg" p-id="13994" xmlns:xlink="http://www.w3.org/1999/xlink" width="32" height="32"><defs><style type="text/css"></style></defs><path d="M152 111.735h240c39.765 0 72 32.236 72 72v240c0 39.765-32.235 72-72 72H152c-39.765 0-72-32.235-72-72v-240c0-39.764 32.235-72 72-72z m0 72v240h240v-240H152z m0 376h240c39.765 0 72 32.236 72 72v240c0 39.765-32.235 72-72 72H152c-39.765 0-72-32.235-72-72v-240c0-39.764 32.235-72 72-72z m0 72v240h240v-240H152z m364.353-378.912l152.735-152.735c28.118-28.117 73.706-28.117 101.824 0l152.735 152.735c28.118 28.118 28.118 73.706 0 101.824L770.912 507.382c-28.118 28.118-73.706 28.118-101.824 0L516.353 354.647c-28.118-28.118-28.118-73.706 0-101.824z m50.912 50.912L720 456.47l152.735-152.735L720 151 567.265 303.735z m32.735 256h240c39.765 0 72 32.236 72 72v240c0 39.765-32.235 72-72 72H600c-39.765 0-72-32.235-72-72v-240c0-39.764 32.235-72 72-72z m0 72v240h240v-240H600z" p-id="13995"></path></svg>