<?xml version="1.0" standalone="no"?><!DOCTYPE svg PUBLIC "-//W3C//DTD SVG 1.1//EN" "http://www.w3.org/Graphics/SVG/1.1/DTD/svg11.dtd"><svg t="1611281087574" class="icon" viewBox="0 0 1024 1024" version="1.1" xmlns="http://www.w3.org/2000/svg" p-id="6850" xmlns:xlink="http://www.w3.org/1999/xlink" width="128" height="128"><defs><style type="text/css"></style></defs><path d="M515.2 36C251.6 36 36.8 250.8 36.8 514.4s214.8 478.4 478.4 478.4 478.4-214.8 478.4-478.4S778.8 36 515.2 36L515.2 36zM515.2 932.8c-231.2 0-418.4-188-418.4-418.4C96.8 283.6 284.8 96 515.2 96c231.2 0 418.4 188 418.4 418.4C933.6 745.6 746 932.8 515.2 932.8L515.2 932.8z" fill="#606060" p-id="6851"></path><path d="M419.2 290.4c-21.2 0-38.8 17.6-38.8 38.8L380.4 700c0 21.2 17.6 38.8 38.8 38.8s38.8-17.2 38.8-38.8L458 329.2C458 308 440.4 290.4 419.2 290.4z" fill="#606060" p-id="6852"></path><path d="M611.2 290.4c-21.2 0-38.8 17.6-38.8 38.8L572.4 700c0 21.2 17.6 38.8 38.8 38.8s38.8-17.2 38.8-38.8L650 329.2C650 308 632.4 290.4 611.2 290.4z" fill="#606060" p-id="6853"></path></svg>