<?xml version="1.0" standalone="no"?><!DOCTYPE svg PUBLIC "-//W3C//DTD SVG 1.1//EN" "http://www.w3.org/Graphics/SVG/1.1/DTD/svg11.dtd"><svg t="1611140671092" class="icon" viewBox="0 0 1024 1024" version="1.1" xmlns="http://www.w3.org/2000/svg" p-id="12036" xmlns:xlink="http://www.w3.org/1999/xlink" width="32" height="32"><defs><style type="text/css"></style></defs><path d="M296.546 66.866h430.91c43.488 0 79.066 35.578 79.066 79.066v735.301c0 43.489-35.578 79.066-79.066 79.066h-430.91c-43.489 0-79.068-35.577-79.068-79.066V145.932c0-43.487 35.579-79.066 79.068-79.066z m-12.733 127.498V508.64h454.628V194.364H283.813z m116.286-85.982v33.603h206.564v-33.603H400.099z m64.404 434.737c-15.355 0-27.908 12.553-27.908 27.892v43.157c0 15.34 12.553 27.892 27.908 27.892h84.507c15.34 0 27.877-12.553 27.877-27.892v-43.157c0-15.34-12.537-27.892-27.877-27.892h-84.507z m-47.678 33.965H291.287v30.273h125.538v-30.273z m305.537 0h-125.54v30.273h125.54v-30.273zM416.674 668.28H291.152v59.085h125.522V668.28z m152.844 0H443.994v59.085h125.524V668.28z m151.94 0H595.934v59.085h125.524V668.28z m-304.784 77.289H291.152v59.085h125.522v-59.085z m152.844 0H443.994v59.085h125.524v-59.085z m151.94 0H595.934v59.085h125.524v-59.085z m-304.784 82.622H291.152v59.085h125.522v-59.085z m152.844 0H443.994v59.085h125.524v-59.085z m151.94 0H595.934v59.085h125.524v-59.085z" p-id="12037"></path></svg>