<?xml version="1.0" standalone="no"?><!DOCTYPE svg PUBLIC "-//W3C//DTD SVG 1.1//EN" "http://www.w3.org/Graphics/SVG/1.1/DTD/svg11.dtd"><svg t="1611280978714" class="icon" viewBox="0 0 1024 1024" version="1.1" xmlns="http://www.w3.org/2000/svg" p-id="4696" xmlns:xlink="http://www.w3.org/1999/xlink" width="128" height="128"><defs><style type="text/css"></style></defs><path d="M512 0a512 512 0 1 1 0 1024A512 512 0 0 1 512 0z m0 64a448 448 0 1 0 0 896A448 448 0 0 0 512 64z m96 256c17.664 0 32 14.336 32 32v320a32 32 0 0 1-64 0v-320c0-17.664 14.336-32 32-32z m-192 0c17.664 0 32 14.336 32 32v320a32 32 0 0 1-64 0v-320c0-17.664 14.336-32 32-32z" p-id="4697"></path></svg>