<?xml version="1.0" standalone="no"?><!DOCTYPE svg PUBLIC "-//W3C//DTD SVG 1.1//EN" "http://www.w3.org/Graphics/SVG/1.1/DTD/svg11.dtd"><svg t="1611140536980" class="icon" viewBox="0 0 1024 1024" version="1.1" xmlns="http://www.w3.org/2000/svg" p-id="8947" xmlns:xlink="http://www.w3.org/1999/xlink" width="32" height="32"><defs><style type="text/css"></style></defs><path d="M887.46666667 989.86666667H153.6a68.34133333 68.34133333 0 0 1-68.26666667-68.26666667V802.13333333a34.13333333 34.13333333 0 0 1 68.26666667 0v119.46666667h733.86666667V102.4H153.6v153.6a34.13333333 34.13333333 0 0 1-68.26666667 0V102.4a68.34133333 68.34133333 0 0 1 68.26666667-68.26666667h733.86666667a68.34133333 68.34133333 0 0 1 68.26666666 68.26666667v819.2a68.34133333 68.34133333 0 0 1-68.26666666 68.26666667z" p-id="8948"></path><path d="M153.6 699.73333333h-68.26666667a34.13333333 34.13333333 0 0 1 0-68.26666666h68.26666667a34.13333333 34.13333333 0 0 1 0 68.26666666z m0-136.53333333h-68.26666667a34.13333333 34.13333333 0 0 1 0-68.26666667h68.26666667a34.13333333 34.13333333 0 0 1 0 68.26666667z m0-136.53333333h-68.26666667a34.13333333 34.13333333 0 0 1 0-68.26666667h68.26666667a34.13333333 34.13333333 0 0 1 0 68.26666667z m358.4 153.6c-94.10133333 0-170.66666667-76.56533333-170.66666667-170.66666667s76.56533333-170.66666667 170.66666667-170.66666667 170.66666667 76.56533333 170.66666667 170.66666667-76.56533333 170.66666667-170.66666667 170.66666667z m0-273.06666667a102.4 102.4 0 1 0 102.4 102.4 102.51733333 102.51733333 0 0 0-102.4-102.4z" p-id="8949"></path><path d="M716.8 785.06666667a34.13333333 34.13333333 0 0 1-34.13333333-34.13333334c0-94.10133333-76.56533333-170.66666667-170.66666667-170.66666666s-170.66666667 76.56533333-170.66666667 170.66666666a34.13333333 34.13333333 0 0 1-68.26666666 0 238.93333333 238.93333333 0 1 1 477.86666666 0 34.13333333 34.13333333 0 0 1-34.13333333 34.13333334z" p-id="8950"></path><path d="M887.46666667 989.86666667H153.6a68.34133333 68.34133333 0 0 1-68.26666667-68.26666667V802.13333333a34.13333333 34.13333333 0 0 1 68.26666667 0v119.46666667h733.86666667V102.4H153.6v153.6a34.13333333 34.13333333 0 0 1-68.26666667 0V102.4a68.34133333 68.34133333 0 0 1 68.26666667-68.26666667h733.86666667a68.34133333 68.34133333 0 0 1 68.26666666 68.26666667v819.2a68.34133333 68.34133333 0 0 1-68.26666666 68.26666667z" p-id="8951"></path><path d="M153.6 699.73333333h-68.26666667a34.13333333 34.13333333 0 0 1 0-68.26666666h68.26666667a34.13333333 34.13333333 0 0 1 0 68.26666666z m0-136.53333333h-68.26666667a34.13333333 34.13333333 0 0 1 0-68.26666667h68.26666667a34.13333333 34.13333333 0 0 1 0 68.26666667z m0-136.53333333h-68.26666667a34.13333333 34.13333333 0 0 1 0-68.26666667h68.26666667a34.13333333 34.13333333 0 0 1 0 68.26666667z m358.4 153.6c-94.10133333 0-170.66666667-76.56533333-170.66666667-170.66666667s76.56533333-170.66666667 170.66666667-170.66666667 170.66666667 76.56533333 170.66666667 170.66666667-76.56533333 170.66666667-170.66666667 170.66666667z m0-273.06666667a102.4 102.4 0 1 0 102.4 102.4 102.51733333 102.51733333 0 0 0-102.4-102.4z" p-id="8952"></path><path d="M716.8 785.06666667a34.13333333 34.13333333 0 0 1-34.13333333-34.13333334c0-94.10133333-76.56533333-170.66666667-170.66666667-170.66666666s-170.66666667 76.56533333-170.66666667 170.66666666a34.13333333 34.13333333 0 0 1-68.26666666 0 238.93333333 238.93333333 0 1 1 477.86666666 0 34.13333333 34.13333333 0 0 1-34.13333333 34.13333334z" p-id="8953"></path></svg>