<?xml version="1.0" standalone="no"?><!DOCTYPE svg PUBLIC "-//W3C//DTD SVG 1.1//EN" "http://www.w3.org/Graphics/SVG/1.1/DTD/svg11.dtd"><svg t="1611144697003" class="icon" viewBox="0 0 1024 1024" version="1.1" xmlns="http://www.w3.org/2000/svg" p-id="8070" xmlns:xlink="http://www.w3.org/1999/xlink" width="32" height="32"><defs><style type="text/css"></style></defs><path d="M864 896H160c-52.8 0-96-43.2-96-96V224c0-52.8 43.2-96 96-96h704c52.8 0 96 43.2 96 96v576c0 52.8-43.2 96-96 96zM160 192c-17.6 0-32 14.4-32 32v576c0 17.6 14.4 32 32 32h704c17.6 0 32-14.4 32-32V224c0-17.6-14.4-32-32-32H160z" p-id="8071"></path><path d="M433.6 672c-4.8 0-11.2-1.6-16-4.8-9.6-6.4-16-16-16-27.2V384c0-11.2 6.4-22.4 16-27.2 9.6-6.4 22.4-6.4 32 0l222.4 128c9.6 6.4 16 16 16 27.2s-6.4 22.4-16 27.2l-222.4 128c-4.8 3.2-11.2 4.8-16 4.8z m32-232v145.6l126.4-72-126.4-73.6z" p-id="8072"></path></svg>