<?xml version="1.0" standalone="no"?><!DOCTYPE svg PUBLIC "-//W3C//DTD SVG 1.1//EN" "http://www.w3.org/Graphics/SVG/1.1/DTD/svg11.dtd"><svg t="1611140697600" class="icon" viewBox="0 0 1024 1024" version="1.1" xmlns="http://www.w3.org/2000/svg" p-id="12464" xmlns:xlink="http://www.w3.org/1999/xlink" width="32" height="32"><defs><style type="text/css"></style></defs><path d="M853.333 341.333V832a106.667 106.667 0 0 1-106.666 106.667H320a149.333 149.333 0 0 1-149.333-149.334v-576a128 128 0 0 1 128-128H832A21.333 21.333 0 1 1 832 128H298.667a85.333 85.333 0 1 0 0 170.667h512a42.667 42.667 0 0 1 42.666 42.666z m-42.666 0h-512c-32.768 0-62.72-12.33-85.334-32.597v480.597A106.667 106.667 0 0 0 320 896h426.667a64 64 0 0 0 64-64V341.333z m-512-106.666a21.333 21.333 0 0 1 0-42.667h512a21.333 21.333 0 1 1 0 42.667h-512z m42.666 298.666a21.333 21.333 0 1 1 0-42.666h341.334a21.333 21.333 0 1 1 0 42.666H341.333z m0 170.667a21.333 21.333 0 1 1 0-42.667h213.334a21.333 21.333 0 1 1 0 42.667H341.333z" p-id="12465"></path></svg>