<?xml version="1.0" standalone="no"?><!DOCTYPE svg PUBLIC "-//W3C//DTD SVG 1.1//EN" "http://www.w3.org/Graphics/SVG/1.1/DTD/svg11.dtd"><svg t="1611140654335" class="icon" viewBox="0 0 1024 1024" version="1.1" xmlns="http://www.w3.org/2000/svg" p-id="11484" xmlns:xlink="http://www.w3.org/1999/xlink" width="32" height="32"><defs><style type="text/css"></style></defs><path d="M832 672h-192v64H128v64h512v64h192v-64h64v-64h-64v-64z m-64 128h-64v-64h64v64zM384 416H192v64H128v64h64v64h192v-64h512v-64H384v-64z m-64 128H256v-64h64v64zM704 224V160h-192v64H128v64h384v64h192V288h192V224h-192z m-64 64h-64V224h64v64z" fill="#111918" p-id="11485"></path></svg>