<?xml version="1.0" standalone="no"?><!DOCTYPE svg PUBLIC "-//W3C//DTD SVG 1.1//EN" "http://www.w3.org/Graphics/SVG/1.1/DTD/svg11.dtd"><svg t="1611144748996" class="icon" viewBox="0 0 1024 1024" version="1.1" xmlns="http://www.w3.org/2000/svg" p-id="9494" xmlns:xlink="http://www.w3.org/1999/xlink" width="32" height="32"><defs><style type="text/css"></style></defs><path d="M618.735441 330.776565c58.601676-56.532551 116.572996-112.452141 176.651302-170.405041L623.466186 160.371524 623.466186 65.290005l328.473103 0 0 318.737368-90.965781 0L860.973508 229.614561c-0.924045-0.416486-1.830695-0.844228-2.756787-1.266853C803.118845 285.84319 748.0179 343.29467 692.423721 401.286456c123.80163 158.464081 78.501912 370.638435-55.175647 479.794507-132.788306 108.361987-329.606927 102.931301-454.198549-14.119579C55.113737 746.777141 35.800879 554.395576 135.416667 413.078013 232.539682 275.317463 442.591699 209.139228 618.735441 330.776565L618.735441 330.776565zM417.076582 862.82825c128.990816 2.489704 249.980401-102.434997 251.284093-249.064542 1.210571-136.842645-112.185059-250.641457-248.683872-250.758114-139.690506-0.11154-252.036223 111.886253-251.992221 251.254418C167.73984 750.525512 280.38948 862.82825 417.076582 862.82825L417.076582 862.82825zM417.076582 862.82825" p-id="9495"></path></svg>