<?xml version="1.0" standalone="no"?><!DOCTYPE svg PUBLIC "-//W3C//DTD SVG 1.1//EN" "http://www.w3.org/Graphics/SVG/1.1/DTD/svg11.dtd"><svg t="1611140608322" class="icon" viewBox="0 0 1024 1024" version="1.1" xmlns="http://www.w3.org/2000/svg" p-id="10515" xmlns:xlink="http://www.w3.org/1999/xlink" width="32" height="32"><defs><style type="text/css"></style></defs><path d="M291.2 327.2L72 498.4l-2.4 2.4c-5.6 8-4.8 17.6 2.4 23.2l219.2 171.2c1.6 0.8 3.2 1.6 4.8 1.6 4.8 0 8-3.2 8-8V608c0-2.4-0.8-4.8-3.2-6.4L185.6 511.2l115.2-89.6c1.6-1.6 3.2-4 3.2-6.4V333.6c0-1.6-0.8-3.2-1.6-4.8-3.2-3.2-8-4-11.2-1.6z m663.2 174.4l-2.4-2.4-219.2-172c-3.2-2.4-8.8-2.4-11.2 1.6-0.8 1.6-1.6 3.2-1.6 4.8v81.6c0 2.4 0.8 4.8 3.2 6.4l115.2 89.6-115.2 90.4c-2.4 1.6-3.2 3.2-3.2 6.4v81.6c0 4.8 4 8 8 8 1.6 0 3.2-0.8 4.8-1.6L952 524c6.4-5.6 8-15.2 2.4-22.4zM660.8 168h-67.2c-3.2 0-6.4 2.4-7.2 5.6l-231.2 672v2.4c0 4 3.2 8 8 8h68c3.2 0 6.4-2.4 7.2-5.6l0.8-2.4 223.2-648 7.2-21.6c0-0.8 0.8-1.6 0.8-2.4-1.6-4-4.8-8-9.6-8z m-222.4 680.8l222.4-646.4c0-0.8 0-0.8 0.8-1.6l-223.2 648z" p-id="10516"></path></svg>