<?xml version="1.0" standalone="no"?><!DOCTYPE svg PUBLIC "-//W3C//DTD SVG 1.1//EN" "http://www.w3.org/Graphics/SVG/1.1/DTD/svg11.dtd"><svg t="1611140604249" class="icon" viewBox="0 0 1024 1024" version="1.1" xmlns="http://www.w3.org/2000/svg" p-id="10377" xmlns:xlink="http://www.w3.org/1999/xlink" width="32" height="32"><defs><style type="text/css"></style></defs><path d="M490.667 681.387l17.493 104.106c-11.093 5.974-29.013 11.52-52.907 16.64-24.32 5.547-52.906 8.534-85.76 8.534-94.293-1.707-165.12-29.867-212.48-83.627-47.786-54.187-71.68-122.88-71.68-206.08 2.134-98.56 30.72-174.08 85.334-226.987 56.32-53.333 126.293-80.64 210.773-80.64 32 0 59.733 2.987 82.773 8.107s40.107 10.667 51.2 17.067l-24.746 106.24-45.227-14.507c-17.067-4.267-36.693-6.4-59.307-6.4-49.493-0.427-90.453 15.36-122.453 46.933-32.427 31.147-49.067 78.934-50.347 142.507 0 58.027 15.787 103.253 46.08 136.533 30.294 32.854 72.96 49.92 127.574 50.347l56.746-5.12c18.347-3.413 33.707-8.107 46.934-13.653m101.973 129.28L618.667 640h-64l14.506-85.333h64l13.654-85.334h-64L597.333 384h64l26.027-170.667h85.333L746.667 384h42.666l26.027-170.667h85.333L874.667 384h64l-14.507 85.333h-64l-13.653 85.334h64L896 640h-64l-26.027 170.667H720.64L746.667 640H704l-26.027 170.667H592.64m125.867-256h42.666l13.654-85.334H732.16l-13.653 85.334z" fill="#707070" p-id="10378"></path></svg>