<?xml version="1.0" standalone="no"?><!DOCTYPE svg PUBLIC "-//W3C//DTD SVG 1.1//EN" "http://www.w3.org/Graphics/SVG/1.1/DTD/svg11.dtd"><svg t="1611141437616" class="icon" viewBox="0 0 1024 1024" version="1.1" xmlns="http://www.w3.org/2000/svg" p-id="12882" xmlns:xlink="http://www.w3.org/1999/xlink" width="32" height="32"><defs><style type="text/css"></style></defs><path d="M590.55 873.36h-403.3c19.35-315.64 252.27-341.07 325.79-341.07 85.84 0 145.55 21.35 199.73 75.54 16.79 16.79 43.13 18.95 60.74 3.01 17.6-15.94 19.8-43.94 3.01-60.74-39.84-39.84-60.11-50.72-114.02-73.37 5.07-4.28 9.99-8.78 14.74-13.53 44.17-44.16 68.49-102.88 68.49-165.34s-24.32-121.18-68.49-165.34-102.89-68.5-165.35-68.5c-62.46 0-121.18 24.32-165.34 68.49s-68.49 102.88-68.49 165.34 24.32 121.18 68.49 165.34c3.54 3.54 7.19 6.94 10.92 10.23-48.57 18.18-91.51 45.02-127.67 79.9-41.22 39.75-73.15 89.52-94.93 147.92-23.16 62.11-34.9 134.48-34.9 215.12 0 23.75 19.25 43 43 43h447.58c23.75 0 43-19.25 43-43s-19.25-43-43-43z m-78.66-723.34c81.51 0 147.83 66.32 147.83 147.83S593.4 445.68 511.89 445.68s-147.83-66.32-147.83-147.83 66.32-147.83 147.83-147.83z" p-id="12883"></path><path d="M930.24 794.73c0-19.26 12.09-35.57 29.03-42.08a168.694 168.694 0 0 0-18.45-44.57c-16.61 7.39-36.67 4.37-50.27-9.26-13.6-13.6-16.61-33.7-9.22-50.27a169.85 169.85 0 0 0-44.61-18.45c-6.54 16.94-22.86 29.03-42.08 29.03-19.26 0-35.57-12.09-42.08-29.03a168.694 168.694 0 0 0-44.57 18.45c7.39 16.61 4.37 36.67-9.22 50.27-13.6 13.6-33.7 16.61-50.27 9.26a167.77 167.77 0 0 0-18.48 44.57c16.94 6.54 29.03 22.86 29.03 42.08 0 19.26-12.09 35.57-29.03 42.08a168.694 168.694 0 0 0 18.45 44.57c16.61-7.39 36.67-4.37 50.27 9.26 13.6 13.6 16.61 33.7 9.22 50.27a169.85 169.85 0 0 0 44.61 18.45c6.54-16.94 22.86-29.03 42.08-29.03 19.26 0 35.57 12.09 42.08 29.03a168.694 168.694 0 0 0 44.57-18.45c-7.39-16.61-4.37-36.67 9.22-50.27 13.6-13.6 33.7-16.61 50.27-9.26a167.77 167.77 0 0 0 18.48-44.57c-16.94-6.51-29.03-22.82-29.03-42.08z m-135.6 45.2c-24.95 0-45.2-20.25-45.2-45.2 0-24.95 20.25-45.2 45.2-45.2 24.95 0 45.2 20.25 45.2 45.2 0 24.95-20.25 45.2-45.2 45.2z" p-id="12884"></path></svg>