<?xml version="1.0" standalone="no"?><!DOCTYPE svg PUBLIC "-//W3C//DTD SVG 1.1//EN" "http://www.w3.org/Graphics/SVG/1.1/DTD/svg11.dtd"><svg t="1611140630186" class="icon" viewBox="0 0 1024 1024" version="1.1" xmlns="http://www.w3.org/2000/svg" p-id="10791" xmlns:xlink="http://www.w3.org/1999/xlink" width="32" height="32"><defs><style type="text/css"></style></defs><path d="M936.152233 861.201194h-588.55456c-12.090363 0-21.894659-9.79918-21.89466-21.893637v-43.789318c0-12.091386 9.804297-21.893636 21.89466-21.893636h588.55456c12.091386 0 21.894659 9.801227 21.894659 21.893636v43.789318c0 12.094456-9.803273 21.893636-21.894659 21.893637z m0-306.517046h-588.55456c-12.090363 0-21.894659-9.804297-21.89466-21.895683v-43.789318c0-12.091386 9.804297-21.893636 21.89466-21.893637h588.55456c12.091386 0 21.894659 9.801227 21.894659 21.893637v43.789318c0 12.090363-9.803273 21.895683-21.894659 21.895683z m0-306.527278h-588.55456c-12.090363 0-21.894659-9.801227-21.89466-21.89159V182.479031c0-12.094456 9.804297-21.895683 21.89466-21.895683h588.55456c12.091386 0 21.894659 9.801227 21.894659 21.895683v43.786249c0 12.090363-9.803273 21.89159-21.894659 21.89159zM150.547785 904.992559c-48.363498 0-87.576591-39.210024-87.576591-87.578638 0-48.369637 39.213094-87.578638 87.576591-87.578637 48.371684 0 87.578638 39.207977 87.578637 87.578637 0 48.369637-39.206954 87.578638-87.578637 87.578638z m0-306.522162c-48.363498 0-87.576591-39.211047-87.576591-87.578638 0-48.368614 39.213094-87.578638 87.576591-87.578637 48.371684 0 87.578638 39.210024 87.578637 87.578637 0 48.367591-39.206954 87.578638-87.578637 87.578638z m0-306.524209c-48.363498 0-87.576591-39.206954-87.576591-87.576591 0-48.366567 39.213094-87.575568 87.576591-87.575567 48.371684 0 87.578638 39.210024 87.578637 87.575567 0 48.369637-39.206954 87.576591-87.578637 87.576591z" fill="#666666" p-id="10792"></path></svg>