<?xml version="1.0" standalone="no"?><!DOCTYPE svg PUBLIC "-//W3C//DTD SVG 1.1//EN" "http://www.w3.org/Graphics/SVG/1.1/DTD/svg11.dtd"><svg t="1615530885048" class="icon" viewBox="0 0 1024 1024" version="1.1" xmlns="http://www.w3.org/2000/svg" p-id="19835" xmlns:xlink="http://www.w3.org/1999/xlink" width="200" height="200"><defs><style type="text/css"></style></defs><path d="M768 384v469.333333H256V384H213.333333V256h42.666667V170.666667h512v85.333333h42.666667v128h-42.666667zM341.333333 384h341.333334V256H341.333333v128z m0 128h85.333334v-85.333333H341.333333v85.333333z m128 0h85.333334v-85.333333h-85.333334v85.333333z m128 0h85.333334v-85.333333h-85.333334v85.333333z m-256 128h85.333334v-85.333333H341.333333v85.333333z m128 0h85.333334v-85.333333h-85.333334v85.333333z m128 0h85.333334v-85.333333h-85.333334v85.333333z m-256 128h85.333334v-85.333333H341.333333v85.333333z m128 0h85.333334v-85.333333h-85.333334v85.333333z m128 0h85.333334v-85.333333h-85.333334v85.333333z" fill="#444444" p-id="19836"></path></svg>