<?xml version="1.0" standalone="no"?><!DOCTYPE svg PUBLIC "-//W3C//DTD SVG 1.1//EN" "http://www.w3.org/Graphics/SVG/1.1/DTD/svg11.dtd"><svg t="1611140661485" class="icon" viewBox="0 0 1024 1024" version="1.1" xmlns="http://www.w3.org/2000/svg" p-id="11760" xmlns:xlink="http://www.w3.org/1999/xlink" width="32" height="32"><defs><style type="text/css"></style></defs><path d="M646.2976 610.7648a33.792 33.792 0 0 1 0 67.4816H377.7024a33.792 33.792 0 0 1 0-67.4816h268.5952z m0 108.1344a33.792 33.792 0 0 1 0 67.4816H377.7024a33.792 33.792 0 0 1 0-67.4816h268.5952z m169.8304-314.1632a33.792 33.792 0 1 1-67.584 0 33.792 33.792 0 0 1 67.584 0zM737.28 475.5456c28.6208 0 51.8144 23.2448 51.8144 51.7632v58.2144h53.6576c6.2464 0 11.3664-5.12 11.3664-11.3664V339.8144c0-6.1952-5.12-11.264-11.3664-11.264H181.248c-6.2464 0-11.3664 5.0688-11.3664 11.264v234.3424c0 6.2464 5.12 11.3664 11.3152 11.3664h53.7088v-58.2144c0-28.5184 23.1936-51.7632 51.7632-51.7632h450.6624z m-434.8928-214.528h419.2256V181.248c0-6.2464-5.12-11.3664-11.3152-11.3664H313.7024c-6.2464 0-11.3152 5.12-11.3152 11.3664v79.8208z m419.2256 293.376c0-6.2464-5.12-11.3664-11.3152-11.3664H313.7024c-6.2464 0-11.3152 5.12-11.3152 11.3152v288.4096c0 6.2464 5.12 11.3664 11.3152 11.3664h396.5952c6.2464 0 11.3152-5.12 11.3152-11.3664v-288.4096z m148.1728-293.376c28.5696 0 51.8144 23.2448 51.8144 51.7632v288.4608c0 28.5184-23.2448 51.7632-51.8144 51.7632h-80.6912v216.832c0 28.5184-23.1936 51.7632-51.7632 51.7632H286.6688a51.8144 51.8144 0 0 1-51.7632-51.7632v-216.832H154.1632A51.8656 51.8656 0 0 1 102.4 601.2416V312.7808c0-28.5184 23.2448-51.712 51.7632-51.712h80.7424V154.112C234.9056 125.6448 258.0992 102.4 286.6688 102.4h450.6624c28.5696 0 51.7632 23.2448 51.7632 51.7632V261.12h80.6912z" fill="#000000" p-id="11761"></path></svg>