<?xml version="1.0" standalone="no"?><!DOCTYPE svg PUBLIC "-//W3C//DTD SVG 1.1//EN" "http://www.w3.org/Graphics/SVG/1.1/DTD/svg11.dtd"><svg t="1611280919947" class="icon" viewBox="0 0 1024 1024" version="1.1" xmlns="http://www.w3.org/2000/svg" p-id="2505" width="128" height="128" xmlns:xlink="http://www.w3.org/1999/xlink"><defs><style type="text/css"></style></defs><path d="M874.667 241.067H672v-70.4C672 130.133 637.867 96 597.333 96H426.667C386.133 96 352 130.133 352 170.667v70.4H149.333c-17.066 0-32 14.933-32 32s14.934 32 32 32h53.334v548.266c0 40.534 34.133 74.667 74.666 74.667h469.334c40.533 0 74.666-34.133 74.666-74.667V305.067h53.334c17.066 0 32-14.934 32-32s-14.934-32-32-32zM416 170.667c0-6.4 4.267-10.667 10.667-10.667h170.666c6.4 0 10.667 4.267 10.667 10.667v70.4H416v-70.4z m341.333 682.666c0 6.4-4.266 10.667-10.666 10.667H277.333c-6.4 0-10.666-4.267-10.666-10.667v-544h490.666v544z" p-id="2506"></path><path d="M426.667 736c17.066 0 32-14.933 32-32V490.667c0-17.067-14.934-32-32-32s-32 14.933-32 32V704c0 17.067 14.933 32 32 32z m170.666 0c17.067 0 32-14.933 32-32V490.667c0-17.067-14.933-32-32-32s-32 14.933-32 32V704c0 17.067 14.934 32 32 32z" p-id="2507"></path></svg>