<?xml version="1.0" standalone="no"?><!DOCTYPE svg PUBLIC "-//W3C//DTD SVG 1.1//EN" "http://www.w3.org/Graphics/SVG/1.1/DTD/svg11.dtd"><svg t="1611144713150" class="icon" viewBox="0 0 1024 1024" version="1.1" xmlns="http://www.w3.org/2000/svg" p-id="8498" xmlns:xlink="http://www.w3.org/1999/xlink" width="32" height="32"><defs><style type="text/css"></style></defs><path d="M511.997953 64.766073c-246.306732 0-446.00596 199.699228-446.00596 446.00596 0 246.303662 199.699228 446.00289 446.00596 446.00289 246.309802 0 446.00903-199.699228 446.00903-446.00289C958.006983 264.465301 758.307755 64.766073 511.997953 64.766073zM511.997953 901.032364c-215.164454 0-390.255215-175.095877-390.255215-390.260331 0-215.158315 175.09076-390.250098 390.255215-390.250098 215.167524 0 390.255215 175.09076 390.255215 390.250098C902.253168 725.936487 727.165478 901.032364 511.997953 901.032364zM511.997953 399.275659c-30.763654 0-55.747675 24.990161-55.747675 55.745628L456.250278 733.775013c0 30.765701 24.985044 55.753815 55.747675 55.753815 30.763654 0 55.750745-24.987091 55.750745-55.753815L567.748698 455.021288C567.748698 424.266843 542.761608 399.275659 511.997953 399.275659zM511.997953 232.021378c-30.763654 0-55.747675 24.981974-55.747675 55.753815 0 30.760584 24.985044 55.747675 55.747675 55.747675 30.763654 0 55.750745-24.987091 55.750745-55.747675C567.748698 257.003352 542.761608 232.021378 511.997953 232.021378z" p-id="8499"></path></svg>