<?xml version="1.0" standalone="no"?><!DOCTYPE svg PUBLIC "-//W3C//DTD SVG 1.1//EN" "http://www.w3.org/Graphics/SVG/1.1/DTD/svg11.dtd"><svg t="1611141506559" class="icon" viewBox="0 0 1024 1024" version="1.1" xmlns="http://www.w3.org/2000/svg" p-id="14132" xmlns:xlink="http://www.w3.org/1999/xlink" width="32" height="32"><defs><style type="text/css"></style></defs><path d="M501.703111 1024C248.206222 1024 42.666667 816.241778 42.666667 559.985778 42.666667 366.023111 160.426667 199.964444 327.594667 130.588444v0.170667a46.364444 46.364444 0 0 1 15.843555-2.759111c26.197333 0 47.445333 21.504 47.445334 47.985778 0 20.906667-13.198222 38.684444-31.630223 45.255111v0.056889c-130.275556 56.035556-221.639111 186.595556-221.639111 338.688 0 203.264 162.986667 368.014222 364.088889 368.014222 201.045333 0 364.060444-164.750222 364.060445-368.014222 0-152.120889-91.363556-282.652444-221.582223-338.688v-0.056889a47.985778 47.985778 0 0 1-31.658666-45.226667 47.786667 47.786667 0 0 1 47.502222-48.014222c5.518222 0 10.865778 0.967111 15.786667 2.759111V130.56c167.196444 69.347556 284.928 235.434667 284.928 429.397333C960.739556 816.241778 755.2 1024 501.703111 1024z m0-496.014222a47.786667 47.786667 0 0 1-47.502222-47.985778V47.985778A47.786667 47.786667 0 0 1 501.703111 0c26.225778 0 47.473778 21.504 47.473778 47.985778v432.014222c0 26.481778-21.248 47.985778-47.473778 47.985778z" p-id="14133"></path></svg>