<?xml version="1.0" standalone="no"?><!DOCTYPE svg PUBLIC "-//W3C//DTD SVG 1.1//EN" "http://www.w3.org/Graphics/SVG/1.1/DTD/svg11.dtd"><svg t="1611144753832" class="icon" viewBox="0 0 1024 1024" version="1.1" xmlns="http://www.w3.org/2000/svg" p-id="9636" xmlns:xlink="http://www.w3.org/1999/xlink" width="32" height="32"><defs><style type="text/css"></style></defs><path d="M437.113941 722.508411c-9.248641 15.991206-18.176988 31.422663-22.985504 39.700187 22.540366 12.96529 166.409031 95.850022 166.409031 95.850022l-47.455825 82.031295c0 0-143.870712-82.920548-166.409031-95.844905-12.279674 21.160949-66.242703 114.463961-66.242703 114.463961l-81.506339-46.893007c0 0 53.964052-93.344968 66.239634-114.504894C262.626931 784.344758 118.10949 701.100846 118.10949 701.100846l47.459918-82.034365c0 0 144.517441 83.248006 167.053714 96.248088 4.928243-8.55791 14.093996-24.39255 23.466458-40.548508-126.581953-101.704356-162.370041-286.649556-76.258825-435.405531C374.709659 75.41562 581.707107 16.845667 741.291708 108.816335c159.583578 91.928712 212.288964 300.102962 117.374244 464.041732C771.542686 723.434503 589.827041 784.748964 437.113941 722.508411L437.113941 722.508411zM693.830767 190.770881c-115.554806-66.566068-265.444605-24.156166-334.146313 94.550423-68.703755 118.709659-30.538527 269.442662 85.021395 336.048639 115.594715 66.561975 265.444605 24.194028 334.147336-94.555539C847.55694 408.070976 809.431621 257.331833 693.830767 190.770881L693.830767 190.770881zM693.830767 190.770881" p-id="9637"></path></svg>