<?xml version="1.0" standalone="no"?><!DOCTYPE svg PUBLIC "-//W3C//DTD SVG 1.1//EN" "http://www.w3.org/Graphics/SVG/1.1/DTD/svg11.dtd"><svg t="1611140643257" class="icon" viewBox="0 0 1024 1024" version="1.1" xmlns="http://www.w3.org/2000/svg" p-id="11067" xmlns:xlink="http://www.w3.org/1999/xlink" width="32" height="32"><defs><style type="text/css"></style></defs><path d="M948.357222 880.61742 90.319735 880.61742 90.319735 338.699008l858.037486 0L948.357222 880.61742zM158.059537 812.877619l722.557883 0L880.61742 406.438809 158.059537 406.438809 158.059537 812.877619z" p-id="11068"></path><path d="M834.915634 337.547431" p-id="11069"></path><path d="M162.643264 371.033473 103.099978 338.721588 201.119471 158.059537 824.348225 158.059537 917.016273 337.615171 856.81817 368.68516 783.072106 225.799338 241.424653 225.799338Z" p-id="11070"></path><path d="M602.748754 722.557883l-144.263197 0C429.312282 722.557883 406.438809 702.461742 406.438809 676.810937l0-111.702933C406.438809 539.43462 429.312282 519.338479 458.508137 519.338479l144.263197 0C631.944609 519.338479 654.818082 539.43462 654.818082 565.085424l0 111.702933C654.818082 702.461742 631.944609 722.557883 602.748754 722.557883zM474.178611 654.818082l112.899669 0 0-67.739802-112.899669 0L474.178611 654.818082z" p-id="11071"></path></svg>