<?xml version="1.0" standalone="no"?><!DOCTYPE svg PUBLIC "-//W3C//DTD SVG 1.1//EN" "http://www.w3.org/Graphics/SVG/1.1/DTD/svg11.dtd"><svg t="1611142630906" class="icon" viewBox="0 0 1024 1024" version="1.1" xmlns="http://www.w3.org/2000/svg" p-id="6095" xmlns:xlink="http://www.w3.org/1999/xlink" width="32" height="32"><defs><style type="text/css"></style></defs><path d="M568 904H64V120h728V512H736V176H120v672H512z" p-id="6096"></path><path d="M708 512c106.4 0 196 89.6 196 196s-89.6 196-196 196S512 814.4 512 708 601.6 512 708 512z m0-56c-140 0-252 112-252 252S568 960 708 960 960 848 960 708s-112-252-252-252zM232 64H288v168H232z m336 0h56v168h-56zM176 344h504v56H176z m0 168h280v56H176z m0 168h224V736h-224z" p-id="6097"></path><path d="M848 792h-168v-224H736V736h112z" p-id="6098"></path></svg>