<?xml version="1.0" standalone="no"?><!DOCTYPE svg PUBLIC "-//W3C//DTD SVG 1.1//EN" "http://www.w3.org/Graphics/SVG/1.1/DTD/svg11.dtd"><svg t="1615530234120" class="icon" viewBox="0 0 1024 1024" version="1.1" xmlns="http://www.w3.org/2000/svg" p-id="15976" xmlns:xlink="http://www.w3.org/1999/xlink" width="200" height="200"><defs><style type="text/css"></style></defs><path d="M328.6 719.856c-4.412 0-8.072-3.56-8.072-7.994 0-4.404 3.498-7.994 7.916-7.994h0.156a8 8 0 0 1 7.994 7.994 7.98 7.98 0 0 1-7.994 7.994zM368.572 719.856c-4.41 0-8.072-3.56-8.072-7.994 0-4.404 3.498-7.994 7.916-7.994h0.156a8 8 0 0 1 7.994 7.994 7.98 7.98 0 0 1-7.994 7.994zM408.55 719.856c-4.412 0-8.072-3.56-8.072-7.994 0-4.404 3.498-7.994 7.916-7.994h0.156a8 8 0 0 1 7.994 7.994 7.98 7.98 0 0 1-7.994 7.994zM328.6 671.89c-4.412 0-8.072-3.56-8.072-7.996 0-4.402 3.498-7.994 7.916-7.994h0.156a8 8 0 0 1 7.994 7.994 7.98 7.98 0 0 1-7.994 7.996zM368.572 671.89c-4.41 0-8.072-3.56-8.072-7.996 0-4.402 3.498-7.994 7.916-7.994h0.156a8 8 0 0 1 7.994 7.994 7.98 7.98 0 0 1-7.994 7.996zM408.55 671.89c-4.412 0-8.072-3.56-8.072-7.996 0-4.402 3.498-7.994 7.916-7.994h0.156a8 8 0 0 1 7.994 7.994 7.98 7.98 0 0 1-7.994 7.996z" fill="" p-id="15977"></path><path d="M599.936 1023.638H152.256c-22.04 0-39.97-17.924-39.97-39.97V615.93c0-22.046 17.932-39.972 39.97-39.972h447.678c22.032 0 39.972 17.926 39.972 39.972v367.738c0.002 22.046-17.94 39.97-39.97 39.97zM152.256 591.948c-13.224 0-23.982 10.774-23.982 23.982v367.738c0 13.24 10.758 23.982 23.982 23.982h447.678c13.226 0 23.984-10.742 23.984-23.982V615.93c0-13.208-10.758-23.982-23.984-23.982H152.256zM670.48 966.274a7.982 7.982 0 0 1-5.668-2.342 8.004 8.004 0 0 1 0.016-11.304 23.79 23.79 0 0 0 7.056-16.926V567.964c0-13.21-10.758-23.984-23.982-23.984a7.98 7.98 0 0 1-7.994-7.994 8 8 0 0 1 7.994-7.994c22.032 0 39.97 17.926 39.97 39.972V935.7a39.654 39.654 0 0 1-11.756 28.262 8.032 8.032 0 0 1-5.636 2.312z" fill="" p-id="15978"></path><path d="M599.936 591.978H152.256c-22.04 0-39.97-17.926-39.97-39.972v-159.892c0-22.046 17.932-39.972 39.97-39.972h447.678c22.032 0 39.972 17.926 39.972 39.972v159.892c0.002 22.046-17.94 39.972-39.97 39.972zM152.256 368.13c-13.224 0-23.982 10.758-23.982 23.984v159.892c0 13.208 10.758 23.982 23.982 23.982h447.678c13.226 0 23.984-10.774 23.984-23.982v-159.892c0-13.226-10.758-23.984-23.984-23.984H152.256z" fill="" p-id="15979"></path><path d="M647.902 543.98a7.98 7.98 0 0 1-7.994-7.994 8 8 0 0 1 7.994-7.994c13.224 0 23.982-10.75 23.982-23.974v-159.886c0-13.224-10.758-23.982-23.982-23.982h-63.956a7.99 7.99 0 0 1-7.994-7.994 7.99 7.99 0 0 1 7.994-7.994h63.956c22.032 0 39.97 17.924 39.97 39.97v159.886c0.002 22.046-17.938 39.962-39.97 39.962zM177.302 329.876a7.944 7.944 0 0 1-5.566-2.264 7.992 7.992 0 0 1-0.172-11.304c7.612-7.838 17.792-12.148 28.66-12.148H232.2a7.99 7.99 0 0 1 7.994 7.994 7.99 7.99 0 0 1-7.994 7.994h-31.976c-6.512 0-12.61 2.592-17.184 7.308a8 8 0 0 1-5.738 2.42z" fill="" p-id="15980"></path><path d="M631.914 400.108a7.974 7.974 0 0 1-5.652-2.342 7.988 7.988 0 0 1 0-11.304l47.966-47.982a7.99 7.99 0 0 1 11.302 0 7.988 7.988 0 0 1 0 11.304l-47.964 47.982a7.974 7.974 0 0 1-5.652 2.342zM599.936 368.13a7.992 7.992 0 0 1-5.652-13.646l47.966-47.982c3.124-3.124 8.182-3.124 11.304 0s3.124 8.182 0 11.304l-47.966 47.982a7.96 7.96 0 0 1-5.652 2.342zM360.108 432.068h-159.884a7.99 7.99 0 0 1-7.996-7.994 7.99 7.99 0 0 1 7.996-7.994h159.884a7.99 7.99 0 0 1 7.994 7.994 7.988 7.988 0 0 1-7.994 7.994zM264.176 480.05h-63.954c-4.42 0-7.996-3.576-7.996-7.994s3.576-7.994 7.996-7.994h63.954c4.42 0 7.994 3.576 7.994 7.994s-3.574 7.994-7.994 7.994zM312.144 528.024h-63.956c-4.418 0-7.994-3.566-7.994-7.986s3.576-7.994 7.994-7.994h63.956c4.418 0 7.994 3.574 7.994 7.994s-3.576 7.986-7.994 7.986zM328.132 480.05h-31.978c-4.418 0-7.994-3.576-7.994-7.994s3.576-7.994 7.994-7.994h31.978c4.418 0 7.994 3.576 7.994 7.994s-3.576 7.994-7.994 7.994zM424.064 432.068h-31.978a7.99 7.99 0 0 1-7.994-7.994 7.99 7.99 0 0 1 7.994-7.994h31.978a7.99 7.99 0 0 1 7.994 7.994 7.988 7.988 0 0 1-7.994 7.994zM535.982 480.05h-31.976c-4.418 0-7.994-3.576-7.994-7.994s3.576-7.994 7.994-7.994h31.976c4.418 0 7.994 3.576 7.994 7.994s-3.576 7.994-7.994 7.994zM216.212 528.024h-15.988a7.99 7.99 0 1 1 0-15.98h15.988c4.418 0 7.994 3.574 7.994 7.994s-3.576 7.986-7.994 7.986zM535.982 432.068H456.04a7.99 7.99 0 0 1-7.994-7.994 7.99 7.99 0 0 1 7.994-7.994h79.942a7.99 7.99 0 0 1 7.994 7.994 7.988 7.988 0 0 1-7.994 7.994zM472.028 480.05h-111.92c-4.418 0-7.994-3.576-7.994-7.994s3.576-7.994 7.994-7.994h111.92c4.42 0 7.996 3.576 7.996 7.994s-3.576 7.994-7.996 7.994zM535.982 528.024H344.12c-4.418 0-7.994-3.566-7.994-7.986s3.576-7.994 7.994-7.994h191.862c4.418 0 7.994 3.574 7.994 7.994s-3.576 7.986-7.994 7.986zM224.206 751.832c-35.264 0-63.956-28.666-63.956-63.954 0-35.258 28.692-63.956 63.956-63.956s63.954 28.698 63.954 63.956c0 35.288-28.69 63.954-63.954 63.954z m0-111.92c-26.45 0-47.966 21.516-47.966 47.966 0 26.45 21.516 47.964 47.966 47.964 26.45 0 47.964-21.516 47.964-47.964 0-26.45-21.514-47.966-47.964-47.966z" fill="" p-id="15981"></path><path d="M224.206 719.856c-17.636 0-31.978-14.334-31.978-31.976 0-17.614 14.34-31.978 31.978-31.978 17.636 0 31.976 14.366 31.976 31.978 0 17.642-14.34 31.976-31.976 31.976z m0-47.966c-8.814 0-15.988 7.182-15.988 15.988 0 8.836 7.174 15.988 15.988 15.988s15.988-7.152 15.988-15.988c0-8.806-7.174-15.988-15.988-15.988zM512 751.832c-35.264 0-63.956-28.666-63.956-63.954 0-35.258 28.69-63.956 63.956-63.956 35.254 0 63.952 28.698 63.952 63.956 0.002 35.288-28.696 63.954-63.952 63.954z m0-111.92c-26.452 0-47.966 21.516-47.966 47.966 0 26.45 21.516 47.964 47.966 47.964 26.448 0 47.964-21.516 47.964-47.964 0-26.45-21.514-47.966-47.964-47.966z" fill="" p-id="15982"></path><path d="M512 719.856c-17.636 0-31.978-14.334-31.978-31.976 0-17.614 14.34-31.978 31.978-31.978 17.626 0 31.976 14.366 31.976 31.978 0 17.642-14.35 31.976-31.976 31.976z m0-47.966c-8.814 0-15.99 7.182-15.99 15.988 0 8.836 7.174 15.988 15.99 15.988 8.814 0 15.988-7.152 15.988-15.988 0-8.806-7.174-15.988-15.988-15.988zM583.948 975.672H168.246a7.98 7.98 0 0 1-7.994-7.992v-175.876a8 8 0 0 1 7.994-7.996h415.702a8 8 0 0 1 7.996 7.996v175.876a7.98 7.98 0 0 1-7.996 7.992zM176.24 959.684h399.712V799.8H176.24v159.884z" fill="" p-id="15983"></path><path d="M216.212 943.696a7.98 7.98 0 0 1-7.994-7.994v-31.976a8 8 0 0 1 7.994-7.994 8 8 0 0 1 7.994 7.994v31.976a7.98 7.98 0 0 1-7.994 7.994zM312.144 943.696a7.978 7.978 0 0 1-7.994-7.994v-15.988a7.998 7.998 0 0 1 7.994-7.994 8 8 0 0 1 7.994 7.994v15.988a7.98 7.98 0 0 1-7.994 7.994zM248.188 943.696a7.98 7.98 0 0 1-7.994-7.994v-111.92a8 8 0 0 1 7.994-7.994 8 8 0 0 1 7.994 7.994v111.92a7.98 7.98 0 0 1-7.994 7.994zM535.982 943.696a7.98 7.98 0 0 1-7.994-7.994v-63.956a8 8 0 0 1 7.994-7.992 8 8 0 0 1 7.994 7.992v63.956a7.98 7.98 0 0 1-7.994 7.994zM344.12 943.696a7.98 7.98 0 0 1-7.994-7.994v-95.932a8 8 0 0 1 7.994-7.994 8 8 0 0 1 7.994 7.994v95.932a7.98 7.98 0 0 1-7.994 7.994zM280.166 943.696a7.98 7.98 0 0 1-7.996-7.994v-79.944a8 8 0 0 1 7.996-7.994 8 8 0 0 1 7.994 7.994v79.944a7.98 7.98 0 0 1-7.994 7.994zM376.096 943.696a7.98 7.98 0 0 1-7.994-7.994v-31.976a8 8 0 0 1 7.994-7.994 8 8 0 0 1 7.996 7.994v31.976a7.98 7.98 0 0 1-7.996 7.994zM472.028 943.696a7.98 7.98 0 0 1-7.994-7.994v-15.988a8 8 0 0 1 7.994-7.994 8 8 0 0 1 7.996 7.994v15.988a7.98 7.98 0 0 1-7.996 7.994zM408.076 943.696a7.98 7.98 0 0 1-7.996-7.994v-111.92a8 8 0 0 1 7.996-7.994 8 8 0 0 1 7.994 7.994v111.92a7.98 7.98 0 0 1-7.994 7.994zM504.006 943.696a7.98 7.98 0 0 1-7.994-7.994v-95.932a8 8 0 0 1 7.994-7.994 8.002 8.002 0 0 1 7.996 7.994v95.932a7.982 7.982 0 0 1-7.996 7.994zM440.052 943.696a7.98 7.98 0 0 1-7.994-7.994v-79.944a8 8 0 0 1 7.994-7.994 8 8 0 0 1 7.994 7.994v79.944a7.98 7.98 0 0 1-7.994 7.994zM424.064 639.912h-111.92a7.98 7.98 0 0 1-7.994-7.994 8 8 0 0 1 7.994-7.994h111.92a8 8 0 0 1 7.994 7.994 7.98 7.98 0 0 1-7.994 7.994zM424.064 751.832h-111.92a7.978 7.978 0 0 1-7.994-7.994 8 8 0 0 1 7.994-7.994h111.92a8 8 0 0 1 7.994 7.994 7.98 7.98 0 0 1-7.994 7.994zM232.2 336.136a7.99 7.99 0 0 1-7.994-7.994V88.298a7.99 7.99 0 0 1 7.994-7.994 7.99 7.99 0 0 1 7.994 7.994v239.844a7.988 7.988 0 0 1-7.994 7.994z" fill="" p-id="15984"></path><path d="M232.2 96.292a7.99 7.99 0 0 1-7.994-7.994c0-48.482 39.448-87.938 87.938-87.938a7.99 7.99 0 0 1 7.994 7.994 7.99 7.99 0 0 1-7.994 7.994c-39.676 0-71.95 32.274-71.95 71.95a7.99 7.99 0 0 1-7.994 7.994zM743.834 767.82a7.98 7.98 0 0 1-7.994-7.994V88.298c0-4.418 3.576-7.994 7.994-7.994s7.994 3.576 7.994 7.994v671.528a7.98 7.98 0 0 1-7.994 7.994zM903.72 767.82a7.98 7.98 0 0 1-7.996-7.994v-63.954a8 8 0 0 1 7.996-7.994 7.998 7.998 0 0 1 7.992 7.994v63.954a7.976 7.976 0 0 1-7.992 7.994z" fill="" p-id="15985"></path><path d="M743.834 96.292a7.99 7.99 0 0 1-7.994-7.994c0-39.676-32.274-71.95-71.95-71.95a7.99 7.99 0 0 1-7.994-7.994A7.99 7.99 0 0 1 663.89 0.36c48.482 0 87.938 39.456 87.938 87.938a7.99 7.99 0 0 1-7.994 7.994zM583.948 336.136a7.99 7.99 0 0 1-7.994-7.994V88.298a7.99 7.99 0 0 1 7.994-7.994 7.99 7.99 0 0 1 7.996 7.994v239.844a7.99 7.99 0 0 1-7.996 7.994z" fill="" p-id="15986"></path><path d="M583.948 96.292a7.99 7.99 0 0 1-7.994-7.994c0-48.482 39.442-87.938 87.938-87.938a7.988 7.988 0 0 1 7.994 7.994 7.988 7.988 0 0 1-7.994 7.994c-39.674 0-71.948 32.274-71.948 71.95a7.99 7.99 0 0 1-7.996 7.994zM823.778 847.764c-48.498 0-87.938-39.44-87.938-87.938a8 8 0 0 1 7.994-7.994 8 8 0 0 1 7.994 7.994c0 39.692 32.274 71.95 71.95 71.95a8 8 0 0 1 7.994 7.994 7.98 7.98 0 0 1-7.994 7.994z" fill="" p-id="15987"></path><path d="M823.778 847.764a7.98 7.98 0 0 1-7.994-7.994 8 8 0 0 1 7.994-7.994c39.674 0 71.948-32.258 71.948-71.95a8 8 0 0 1 7.996-7.994 8 8 0 0 1 7.992 7.994c-0.002 48.498-39.456 87.938-87.936 87.938zM663.89 16.366H312.144c-4.42 0-7.994-3.576-7.994-7.994s3.574-7.994 7.994-7.994h351.748c4.42 0 7.994 3.576 7.994 7.994s-3.576 7.994-7.996 7.994zM903.706 703.868a7.632 7.632 0 0 1-3.56-0.844l-28.402-14.208-28.4 14.208a8.006 8.006 0 0 1-7.152 0l-28.402-14.208-28.4 14.208a8.002 8.002 0 0 1-7.15 0l-31.978-15.988a7.972 7.972 0 0 1-3.576-10.71 7.966 7.966 0 0 1 10.728-3.592l28.4 14.208 28.402-14.208a8.002 8.002 0 0 1 7.15 0l28.402 14.208 28.4-14.208a8.006 8.006 0 0 1 7.152 0l31.976 15.988a8.024 8.024 0 0 1 3.576 10.744 8.044 8.044 0 0 1-7.166 4.402z" fill="" p-id="15988"></path><path d="M823.778 847.764H679.88a7.98 7.98 0 0 1-7.994-7.994 8 8 0 0 1 7.994-7.994h143.898a8 8 0 0 1 7.994 7.994 7.98 7.98 0 0 1-7.994 7.994zM623.92 1012.772a8.006 8.006 0 0 1-5.668-2.342 8.004 8.004 0 0 1 0.016-11.304l46.31-46.248c3.124-3.124 8.182-3.124 11.304 0s3.124 8.182 0 11.304l-46.31 46.248a7.978 7.978 0 0 1-5.652 2.342zM128.142 379.232a7.99 7.99 0 0 1-5.66-13.632l49.168-49.34a8.006 8.006 0 0 1 11.304-0.032 7.99 7.99 0 0 1 0.016 11.304l-49.168 49.34a7.918 7.918 0 0 1-5.66 2.36zM583.948 336.136H232.2a7.99 7.99 0 0 1-7.994-7.994 7.99 7.99 0 0 1 7.994-7.994h351.748a7.99 7.99 0 0 1 7.996 7.994 7.99 7.99 0 0 1-7.996 7.994zM440.052 224.216h-63.956a7.99 7.99 0 0 1-7.994-7.994v-4.45c-19.836-13.32-31.984-35.708-31.984-59.504 0-39.674 32.282-71.948 71.958-71.948 39.674 0 71.948 32.274 71.948 71.948 0 23.796-12.14 46.186-31.978 59.504v4.45a7.988 7.988 0 0 1-7.994 7.994z m-55.96-15.988h47.966v-0.876c0-2.842 1.514-5.48 3.974-6.916 17.534-10.196 28.002-28.2 28.002-48.168 0-30.852-25.106-55.96-55.958-55.96-30.862 0-55.968 25.108-55.968 55.96 0 19.97 10.468 37.972 28.012 48.168a8.02 8.02 0 0 1 3.974 6.916v0.876z" fill="" p-id="15989"></path><path d="M424.064 288.172h-31.978a7.99 7.99 0 0 1-5.652-2.342l-15.988-15.988a7.984 7.984 0 0 1-2.342-5.652v-47.966a7.99 7.99 0 0 1 7.994-7.994h63.956a7.99 7.99 0 0 1 7.994 7.994v47.966a7.98 7.98 0 0 1-2.342 5.652l-15.988 15.988a8.004 8.004 0 0 1-5.654 2.342z m-28.668-15.99h25.358l11.304-11.304v-36.662h-47.966v36.662l11.304 11.304z" fill="" p-id="15990"></path><path d="M440.052 256.194h-63.956a7.99 7.99 0 0 1-7.994-7.996 7.99 7.99 0 0 1 7.994-7.994h63.956a7.99 7.99 0 0 1 7.994 7.994 7.99 7.99 0 0 1-7.994 7.996zM424.064 208.228a7.97 7.97 0 0 1-5.652-2.342l-10.336-10.336-10.336 10.336a7.992 7.992 0 1 1-11.304-11.304l15.99-15.988a7.988 7.988 0 0 1 11.304 0l15.99 15.988a7.988 7.988 0 0 1 0 11.304 7.984 7.984 0 0 1-5.656 2.342z" fill="" p-id="15991"></path><path d="M424.064 208.228a7.99 7.99 0 0 1-7.994-7.994V152.268a7.992 7.992 0 0 1 7.994-7.996 7.99 7.99 0 0 1 7.994 7.996v47.966a7.99 7.99 0 0 1-7.994 7.994zM392.086 208.228a7.99 7.99 0 0 1-7.994-7.994V152.268c0-4.418 3.576-7.996 7.994-7.996s7.994 3.576 7.994 7.996v47.966a7.99 7.99 0 0 1-7.994 7.994z" fill="" p-id="15992"></path></svg>