<?xml version="1.0" standalone="no"?><!DOCTYPE svg PUBLIC "-//W3C//DTD SVG 1.1//EN" "http://www.w3.org/Graphics/SVG/1.1/DTD/svg11.dtd"><svg t="1611144693200" class="icon" viewBox="0 0 1024 1024" version="1.1" xmlns="http://www.w3.org/2000/svg" p-id="7928" xmlns:xlink="http://www.w3.org/1999/xlink" width="32" height="32"><defs><style type="text/css"></style></defs><path d="M296.4 283.4v398.9c-20.6-4.5-43.2-3.6-66.9 7.1-34 15.3-58.7 47.5-63.3 84.5-8.1 65.8 42.9 121.7 107.1 121.7 58.1 0 105.3-45.9 107.7-103.3h0.2V384.4l316.2-97.9v303.2c-20.5-4.5-42.9-3.6-66.5 6.9-34.1 15.1-58.9 47.3-63.7 84.3-8.4 65.9 42.8 122.1 107 122.1 58.1 0 105.3-45.9 107.7-103.3h0.2V176.1c0-30.2-27.8-52.8-57.4-46.5L334.1 236.9c-22 4.6-37.7 24-37.7 46.5z" fill="#666666" p-id="7929"></path></svg>