<?xml version="1.0" standalone="no"?><!DOCTYPE svg PUBLIC "-//W3C//DTD SVG 1.1//EN" "http://www.w3.org/Graphics/SVG/1.1/DTD/svg11.dtd"><svg t="1611140392946" class="icon" viewBox="0 0 1024 1024" version="1.1" xmlns="http://www.w3.org/2000/svg" p-id="7523" xmlns:xlink="http://www.w3.org/1999/xlink" width="32" height="32"><defs><style type="text/css"></style></defs><path d="M280.360827 668.305929 161.835364 668.305929c-28.383444 0-51.474348-23.090904-51.474348-51.474348L110.361015 413.645948c0-28.383444 23.090904-51.474348 51.474348-51.474348l118.525464 0 0 35.219129L161.835364 397.390729c-8.963139 0-16.255219 7.29208-16.255219 16.255219L145.580145 616.83158c0 8.963139 7.29208 16.256242 16.255219 16.256242l118.525464 0L280.360827 668.305929z" p-id="7524"></path><path d="M520.108167 887.588167c-10.598382 0-26.973328-3.798513-44.814672-21.892613L262.141884 653.238768c-10.627035-9.661034-15.474436-27.712155-15.474436-40.587394L246.667447 417.811828c0-12.978593 4.846378-31.137161 15.47239-40.800241l214.169801-213.500559c13.107529-13.286608 28.79686-20.602224 44.187385-20.602224 22.895453 0 47.538713 17.568121 47.538713 56.140625l0 626.279766c0 17.180288-4.13211 32.084743-11.95017 43.103704C547.322995 880.785228 534.544971 887.588167 520.108167 887.588167zM284.705785 628.447129c0.265036 0.233314 0.522909 0.474814 0.773619 0.723477l213.537398 212.843596c0.035816 0.036839 0.072655 0.073678 0.10847 0.110517 7.475252 7.589862 15.121396 11.941983 20.98187 11.941983 8.483208 0 14.408151-11.81714 14.408151-28.738531L534.515295 199.048405c0-5.306866-1.010003-22.61916-14.017248-22.61916-6.269797 0-13.690814 3.88447-20.3597 10.659781-0.036839 0.036839-0.072655 0.073678-0.109494 0.110517L285.480428 401.076678c-0.245593 0.24457-0.49835 0.481977-0.75827 0.710175-1.558495 1.691525-4.533246 8.78713-4.533246 16.024975l0 194.838523C280.188912 619.814518 283.1565 626.803699 284.705785 628.447129z" p-id="7525"></path><path d="M630.652865 626.709555c-7.518231 0-14.382569-5.043876-16.371876-12.657274-2.363837-9.04705 3.055592-18.297738 12.103666-20.661575 35.532261-9.281387 60.34846-41.419342 60.34846-78.150918 0-36.726459-24.818245-68.870554-60.3546-78.168314-9.04705-2.366907-14.462387-11.619642-12.094456-20.666692 2.366907-9.046027 11.617595-14.46034 20.666692-12.095479 50.427506 13.193487 85.647659 58.809407 85.647659 110.929462 0 52.131311-35.222199 97.742115-85.654822 110.917182C633.508913 626.530476 632.069121 626.709555 630.652865 626.709555z" p-id="7526"></path><path d="M702.920796 732.550115c-6.008854 0-11.828396-3.206018-14.896268-8.857738-4.461615-8.218172-1.415232-18.497283 6.80294-22.958898 68.116377-36.975123 110.432135-108.052948 110.432135-185.495738 0-77.725222-42.528606-148.953474-110.98779-185.887664-8.230452-4.440126-11.302417-14.71105-6.862291-22.941502 4.441149-8.230452 14.71412-11.302417 22.941502-6.862291 79.43005 42.852994 128.773875 125.501342 128.773875 215.691457 0 89.871867-49.101301 172.353416-128.142495 215.256552C708.416973 731.889059 705.64893 732.550115 702.920796 732.550115z" p-id="7527"></path><path d="M762.910075 823.067688c-6.189979 0-12.152784-3.405563-15.130605-9.31004-4.211928-8.349155-0.857531-18.531052 7.491625-22.744004C860.021833 738.174206 925.092851 632.502491 925.092851 515.238764c0-117.266797-65.072041-222.943628-169.82278-275.79023-8.349155-4.211928-11.703553-14.394848-7.490601-22.744004 4.211928-8.350179 14.394848-11.703553 22.745027-7.490601 55.775304 28.138874 102.847389 71.00517 136.12633 123.965359 34.219359 54.455239 52.30732 117.41006 52.30732 182.059476 0 64.642253-18.08796 127.594003-52.30732 182.047196-33.280987 52.963259-80.353073 95.828532-136.127354 123.963313C768.077771 822.482357 765.47448 823.067688 762.910075 823.067688z" p-id="7528"></path></svg>