<?xml version="1.0" standalone="no"?><!DOCTYPE svg PUBLIC "-//W3C//DTD SVG 1.1//EN" "http://www.w3.org/Graphics/SVG/1.1/DTD/svg11.dtd"><svg t="1611140464321" class="icon" viewBox="0 0 1024 1024" version="1.1" xmlns="http://www.w3.org/2000/svg" p-id="7665" xmlns:xlink="http://www.w3.org/1999/xlink" width="32" height="32"><defs><style type="text/css"></style></defs><path d="M896 640c70.4 0 128-57.6 128-128s-57.6-128-128-128l-19.2 0c-6.4-12.8-12.8-25.6-12.8-38.4l12.8-12.8c25.6-25.6 38.4-57.6 38.4-89.6s-12.8-64-38.4-89.6c-25.6-25.6-57.6-38.4-89.6-38.4-32 0-64 12.8-89.6 38.4l-12.8 12.8c-12.8-6.4-25.6-12.8-38.4-12.8L646.4 128c0-70.4-57.6-128-128-128C441.6 0 384 57.6 384 128l0 19.2C371.2 153.6 358.4 160 345.6 166.4L332.8 147.2C307.2 128 275.2 115.2 243.2 115.2c-32 0-64 12.8-89.6 38.4C128 172.8 115.2 204.8 115.2 243.2s12.8 64 38.4 89.6l12.8 12.8C160 358.4 153.6 371.2 147.2 384L128 384C57.6 384 0 441.6 0 512s57.6 128 128 128l19.2 0c6.4 12.8 12.8 25.6 12.8 38.4l-12.8 12.8c-25.6 25.6-38.4 57.6-38.4 89.6s12.8 64 38.4 89.6c25.6 25.6 57.6 38.4 89.6 38.4 32 0 64-12.8 89.6-38.4l12.8-12.8c12.8 6.4 25.6 12.8 38.4 12.8L377.6 896c0 70.4 57.6 128 128 128 70.4 0 128-57.6 128-128l0-19.2c12.8-6.4 25.6-12.8 38.4-12.8l12.8 12.8c25.6 25.6 57.6 38.4 89.6 38.4 32 0 64-12.8 89.6-38.4 25.6-25.6 38.4-57.6 38.4-89.6s-12.8-64-38.4-89.6l-12.8-12.8c6.4-12.8 12.8-25.6 12.8-38.4L896 646.4zM825.6 736c12.8 12.8 19.2 25.6 19.2 44.8s-6.4 32-19.2 44.8c-25.6 25.6-64 25.6-89.6 0l-51.2-51.2-19.2 12.8c-19.2 12.8-44.8 19.2-70.4 25.6L576 825.6 576 896c0 38.4-25.6 64-64 64s-64-25.6-64-64l0-70.4-25.6-6.4c-25.6-6.4-44.8-19.2-70.4-25.6l-19.2-12.8-51.2 51.2c-25.6 25.6-64 25.6-89.6 0-12.8-12.8-19.2-25.6-19.2-44.8s6.4-32 19.2-44.8l51.2-51.2-12.8-19.2c-12.8-19.2-19.2-44.8-25.6-70.4L198.4 576 128 576C89.6 576 64 550.4 64 512s25.6-64 64-64l70.4 0 6.4-25.6c6.4-25.6 19.2-44.8 25.6-70.4l12.8-19.2L198.4 288C185.6 275.2 179.2 256 179.2 243.2c0-19.2 6.4-32 19.2-44.8 25.6-25.6 64-25.6 89.6 0l51.2 51.2 19.2-12.8c19.2-12.8 44.8-19.2 70.4-25.6L448 198.4 448 128c0-38.4 25.6-64 64-64s64 25.6 64 64l0 70.4 25.6 6.4c25.6 6.4 44.8 19.2 70.4 25.6l19.2 12.8 51.2-51.2c25.6-25.6 64-25.6 89.6 0 12.8 12.8 19.2 25.6 19.2 44.8 0 19.2-6.4 32-19.2 44.8l-51.2 51.2 12.8 19.2c12.8 19.2 19.2 44.8 25.6 70.4L825.6 448 896 448c38.4 0 64 25.6 64 64s-25.6 64-64 64l-70.4 0-6.4 25.6c-6.4 25.6-19.2 44.8-25.6 70.4l-12.8 19.2L825.6 736zM512 320C403.2 320 320 403.2 320 512s83.2 192 192 192 192-83.2 192-192S620.8 320 512 320zM512 640c-70.4 0-128-57.6-128-128s57.6-128 128-128c70.4 0 128 57.6 128 128S582.4 640 512 640z" p-id="7666"></path></svg>