<?xml version="1.0" standalone="no"?><!DOCTYPE svg PUBLIC "-//W3C//DTD SVG 1.1//EN" "http://www.w3.org/Graphics/SVG/1.1/DTD/svg11.dtd"><svg t="1611144736281" class="icon" viewBox="0 0 1024 1024" version="1.1" xmlns="http://www.w3.org/2000/svg" p-id="9066" xmlns:xlink="http://www.w3.org/1999/xlink" width="32" height="32"><defs><style type="text/css"></style></defs><path d="M177.39776 202.05056c-27.52 34.28864-88.48896 197.5808 172.83072 464.89088 275.3536 281.77408 452.95616 221.47072 483.52256 189.72672l-184.07424-183.80288c-25.73312 25.65632-58.84928 2.8416-122.42944-48.88064-42.01472-34.24256-90.48576-80.29184-132.45952-132.22912-29.45536-36.37248-55.5008-74.60864-28.61056-101.49376L177.39776 202.05056z" p-id="9067"></path><path d="M900.31104 790.87104c11.92448-11.93984 10.73152-30.11072-0.11776-41.00608l0-0.16384c0 0-143.62624-143.10912-143.69792-143.19104-11.37152-11.34592-29.54752-11.12064-40.86272 0.08192l-52.0704 52.0704 184.56576 184.27904c0 0 52.13696-51.93216 52.0704-51.96288L900.31104 790.87104z" p-id="9068"></path><path d="M432.53248 323.98848c11.92448-11.96544 10.81344-30.08512 0-40.9088l0-0.18432c0 0-147.77344-147.28704-147.85024-147.31776-11.37152-11.41248-29.58336-11.14112-40.84736 0.03072L191.79008 187.70432l188.63616 188.37504c0 0 52.10624-51.86048 52.10624-51.95264L432.53248 323.98848z" p-id="9069"></path></svg>