<?xml version="1.0" standalone="no"?><!DOCTYPE svg PUBLIC "-//W3C//DTD SVG 1.1//EN" "http://www.w3.org/Graphics/SVG/1.1/DTD/svg11.dtd"><svg t="1611141539918" class="icon" viewBox="0 0 1024 1024" version="1.1" xmlns="http://www.w3.org/2000/svg" p-id="14690" xmlns:xlink="http://www.w3.org/1999/xlink" width="32" height="32"><defs><style type="text/css"></style></defs><path d="M358.4 256h512v51.2H358.4V256z m0 256h512v51.2H358.4v-51.2z m0 256h512v51.2H358.4v-51.2zM240.128 204.8v153.6h-42.4448V257.7408a129.024 129.024 0 0 1-19.968 12.6976 155.6992 155.6992 0 0 1-24.1152 9.216v-34.3552c14.2848-4.608 25.3952-10.1376 33.28-16.5888 7.8848-6.4512 14.08-14.4384 18.5344-23.9104h34.7136z m39.3728 409.6H153.6a78.848 78.848 0 0 1 13.1584-35.072c7.2704-10.9568 20.992-23.9104 41.1136-38.8096 12.288-9.1136 20.1728-16.0768 23.6032-20.7872 3.4304-4.7616 5.12-9.216 5.12-13.5168a15.7696 15.7696 0 0 0-5.0688-11.776 17.7664 17.7664 0 0 0-12.8-4.9152 17.92 17.92 0 0 0-13.1584 5.0688c-3.3792 3.3792-5.632 9.3184-6.8608 17.8176l-41.984-3.3792c1.6384-11.8272 4.608-21.0432 9.0112-27.648a42.0864 42.0864 0 0 1 18.6368-15.2576c7.9872-3.584 19.0464-5.3248 33.1776-5.3248 14.7968 0 26.2656 1.6896 34.5088 5.0688 8.192 3.328 14.6432 8.4992 19.3536 15.4624a40.96 40.96 0 0 1 7.0656 23.4496c0 9.216-2.7136 18.0224-8.0896 26.368-5.4272 8.3968-15.2064 17.6128-29.44 27.648a311.04 311.04 0 0 0-16.896 12.2368 155.2384 155.2384 0 0 0-10.0864 9.1648h65.536V614.4z m-84.6848 147.9168l-38.9632-7.0144a48.9472 48.9472 0 0 1 18.688-28.5696c9.216-6.656 22.272-9.9328 39.1168-9.9328 19.456 0 33.4336 3.584 42.0864 10.8544a34.048 34.048 0 0 1 12.9536 27.2384 30.464 30.464 0 0 1-5.2736 17.408 44.8 44.8 0 0 1-15.872 13.7216c5.7344 1.3824 10.0864 3.072 13.1584 4.9664 4.9152 3.0208 8.704 7.0144 11.4688 11.9808a36.352 36.352 0 0 1 4.096 17.7664c0 8.704-2.2528 16.9472-6.7584 24.8832a45.4656 45.4656 0 0 1-19.5584 18.3296c-8.4992 4.3008-19.712 6.4512-33.536 6.4512-13.5168 0-24.1664-1.5872-31.9488-4.7616a47.7696 47.7696 0 0 1-19.2512-13.9264 64 64 0 0 1-11.6224-23.04l41.216-5.4784c1.6384 8.2944 4.1472 14.08 7.5776 17.2544a18.2272 18.2272 0 0 0 13.0048 4.8128 17.92 17.92 0 0 0 13.824-6.0416 23.1936 23.1936 0 0 0 5.5296-16.2304 22.528 22.528 0 0 0-5.3248-16.0256 18.8416 18.8416 0 0 0-14.4384-5.632c-3.2256 0-7.68 0.768-13.3632 2.4064l2.1504-29.4912a39.424 39.424 0 0 0 5.3248 0.512 18.8416 18.8416 0 0 0 13.568-5.1712 16.384 16.384 0 0 0 5.376-12.288 14.6432 14.6432 0 0 0-4.0448-10.8032 15.0528 15.0528 0 0 0-11.1104-4.096 16.384 16.384 0 0 0-11.8784 4.4544c-3.072 2.9184-5.12 8.0896-6.144 15.4624z" p-id="14691"></path></svg>