<?xml version="1.0" standalone="no"?><!DOCTYPE svg PUBLIC "-//W3C//DTD SVG 1.1//EN" "http://www.w3.org/Graphics/SVG/1.1/DTD/svg11.dtd"><svg t="1611140572147" class="icon" viewBox="0 0 1024 1024" version="1.1" xmlns="http://www.w3.org/2000/svg" p-id="9808" xmlns:xlink="http://www.w3.org/1999/xlink" width="32" height="32"><defs><style type="text/css"></style></defs><path d="M832 448l0 192L128 640 128 448 832 448M832 384 128 384C92.608 384 64 412.608 64 448l0 192c0 35.392 28.608 64 64 64l704 0c35.392 0 64-28.608 64-64L896 448C896 412.608 867.392 384 832 384L832 384z" p-id="9809"></path><path d="M480 64C497.664 64 512 78.336 512 96l0 832C512 945.664 497.664 960 480 960l0 0C462.336 960 448 945.664 448 928l0-832C448 78.336 462.336 64 480 64L480 64z" p-id="9810"></path></svg>