<?xml version="1.0" standalone="no"?><!DOCTYPE svg PUBLIC "-//W3C//DTD SVG 1.1//EN" "http://www.w3.org/Graphics/SVG/1.1/DTD/svg11.dtd"><svg t="1611141478241" class="icon" viewBox="0 0 1024 1024" version="1.1" xmlns="http://www.w3.org/2000/svg" p-id="13718" xmlns:xlink="http://www.w3.org/1999/xlink" width="32" height="32"><defs><style type="text/css"></style></defs><path d="M135.9872 384H192c4.4032 0 7.9872-3.584 7.9872-7.9872V199.9872h176.0256c4.4032 0 7.9872-3.584 7.9872-7.9872V135.9872a8.0384 8.0384 0 0 0-7.9872-7.9872H195.9936c-37.5808 0-67.9936 30.4128-67.9936 67.9936v180.0192c0 4.4032 3.584 7.9872 7.9872 7.9872z m512-184.0128h176.0256v176.0256c0 4.4032 3.584 7.9872 7.9872 7.9872h56.0128c4.4032 0 7.9872-3.584 7.9872-7.9872V195.9936c0-37.5808-30.4128-67.9936-67.9936-67.9936h-180.0192a8.0384 8.0384 0 0 0-7.9872 7.9872V192c0 4.4032 3.584 7.9872 7.9872 7.9872zM376.0128 824.0128H199.9872v-176.0256a8.0384 8.0384 0 0 0-7.9872-7.9872H135.9872a8.0384 8.0384 0 0 0-7.9872 7.9872v180.0192c0 37.5808 30.4128 67.9936 67.9936 67.9936h180.0192c4.4032 0 7.9872-3.584 7.9872-7.9872V832a8.0384 8.0384 0 0 0-7.9872-7.9872z m512-184.0128H832a8.0384 8.0384 0 0 0-7.9872 7.9872v176.0256h-176.0256a8.0384 8.0384 0 0 0-7.9872 7.9872v56.0128c0 4.4032 3.584 7.9872 7.9872 7.9872h180.0192c37.5808 0 67.9936-30.4128 67.9936-67.9936v-180.0192a8.0384 8.0384 0 0 0-7.9872-7.9872z m15.9744-163.9936H120.0128a8.0384 8.0384 0 0 0-7.9872 7.9872v56.0128c0 4.4032 3.584 7.9872 7.9872 7.9872h783.9744c4.4032 0 8.0384-3.584 8.0384-7.9872V483.9936a8.0384 8.0384 0 0 0-8.0384-7.9872z" p-id="13719"></path></svg>