<?xml version="1.0" standalone="no"?><!DOCTYPE svg PUBLIC "-//W3C//DTD SVG 1.1//EN" "http://www.w3.org/Graphics/SVG/1.1/DTD/svg11.dtd"><svg t="1611140657557" class="icon" viewBox="0 0 1024 1024" version="1.1" xmlns="http://www.w3.org/2000/svg" p-id="11622" xmlns:xlink="http://www.w3.org/1999/xlink" width="32" height="32"><defs><style type="text/css"></style></defs><path d="M309.914 196.966l209.766 121.14 209.766-121.14L519.68 75.878z m217.241 375.552L736.922 451.43V209.254L527.155 330.342z m-14.131 0L303.258 451.43V209.254l209.766 121.088zM87.142 581.683l209.716 121.088 209.766-121.088-209.766-121.139z m217.242 375.552l209.715-121.139V593.92L304.384 715.008z m-14.182 0L80.435 836.096V593.92l209.767 121.088zM531.866 582.81l209.766 121.088L951.398 582.81 741.632 461.722z m217.241 375.552l209.767-121.088V595.046l-209.767 121.14z m-14.131 0L525.21 837.274V595.046l209.766 121.14z" p-id="11623"></path></svg>